<svg version="1.2" xmlns="http://www.w3.org/2000/svg" viewBox="0 0 1500 1000" width="1500" height="1000">
	<title>3905846</title>
	<defs>
		<linearGradient id="g1" x2="1" gradientUnits="userSpaceOnUse" gradientTransform="matrix(-1389.501,-983.414,936.723,-1323.53,883.674,1394.71)">
			<stop offset="0" stop-color="#ffffff" stop-opacity="1"/>
			<stop offset="1" stop-color="#feffff" stop-opacity="0"/>
		</linearGradient>
	</defs>
	<style>
		.s0 { fill: #fad9c8 } 
		.s1 { fill: none;stroke: #dbbaae;stroke-linecap: round;stroke-miterlimit:10;stroke-width: 4 } 
		.s2 { fill: #ffffff } 
		.s3 { fill: #d90666 } 
		.s4 { fill: #dbbaae } 
		.s5 { fill: #b20669 } 
		.s6 { fill: #d90666;stroke: #9b0a64;stroke-miterlimit:10;stroke-width: 2.3 } 
		.s7 { fill: #e82e83 } 
		.s8 { fill: none;stroke: #9b0a64;stroke-miterlimit:10;stroke-width: 2.3 } 
		.s9 { fill: #d90666;stroke: #9b0a64;stroke-linecap: round;stroke-miterlimit:10;stroke-width: 2.3 } 
		.s10 { fill: #ff9747 } 
		.s11 { fill: #eab19e } 
		.s12 { fill: none;stroke: #1f0a09;stroke-linecap: round;stroke-linejoin: round;stroke-width: 1.6 } 
		.s13 { fill: #30174a } 
		.s14 { fill: #30174a;stroke: #3c1d5c;stroke-linecap: round;stroke-miterlimit:10;stroke-width: 2.3 } 
		.s15 { fill: #552982 } 
		.s16 { fill: #feffff } 
		.s17 { fill: none;stroke: #f0cae1;stroke-miterlimit:10;stroke-width: 2.3 } 
		.s18 { fill: #ad6851 } 
		.s19 { fill: #914930 } 
		.s20 { fill: #a15238 } 
		.s21 { fill: #613122 } 
		.s22 { fill: none;stroke: #1f0a09;stroke-linecap: round;stroke-linejoin: round;stroke-width: 2 } 
		.s23 { fill: #1f0a09 } 
		.s24 { fill: #ad5d42 } 
		.s25 { opacity: .6;mix-blend-mode: soft-light;fill: #342c30 } 
		.s26 { fill: none;stroke: #a83636;stroke-linecap: round;stroke-miterlimit:10;stroke-width: 4.4 } 
		.s27 { fill: none;stroke: #1f0a09;stroke-linecap: round;stroke-miterlimit:10;stroke-width: 2.3 } 
		.s28 { fill: #ff7b47 } 
		.s29 { fill: none;stroke: #3c1d5c;stroke-linecap: round;stroke-miterlimit:10;stroke-width: 2.3 } 
		.s30 { fill: #cf7659 } 
		.s31 { fill: #eaa088 } 
		.s32 { fill: #ed9080 } 
		.s33 { fill: #582c7e } 
		.s34 { fill: none;stroke: #8a432c;stroke-linecap: round;stroke-miterlimit:10;stroke-width: 4.6 } 
		.s35 { fill: url(#g1) } 
		.s36 { fill: #442069 } 
		.s37 { fill: none;stroke: #30174a;stroke-miterlimit:10;stroke-width: 2 } 
	</style>
	<g id="BACKGROUND">
		<g id="&lt;Group&gt;">
			<g id="&lt;Group&gt;">
				<path id="&lt;Path&gt;" class="s0" d="m1156.8 181.3h128.9v-56.3h-128.9z"/>
				<path id="&lt;Path&gt;" class="s0" d="m190 188.6h128.8v-56.2h-128.8z"/>
				<path id="&lt;Path&gt;" class="s0" d="m1313.3 586.3v56.3h128.9v-56.3z"/>
				<path id="&lt;Path&gt;" class="s0" d="m63.5 607.1h128.9v-56.2h-128.9z"/>
			</g>
			<path id="&lt;Path&gt;" class="s1" d="m64.3 773.8h1371.4"/>
		</g>
	</g>
	<g id="OBJECTS">
		<g id="&lt;Group&gt;">
			<path id="&lt;Path&gt;" class="s2" d="m494.8 79.2c-43.4 0-78.5 25.3-78.5 56.4 0 20.2 14.7 37.8 36.7 47.8-5.6 9.4-17.2 16.6-17.2 16.6 17.4 0.9 30.8-4.3 39.7-9.7 6.2 1.2 12.6 1.8 19.3 1.8 43.3 0 78.4-25.3 78.4-56.5 0-31.1-35.1-56.4-78.4-56.4z"/>
			<path id="&lt;Path&gt;" class="s3" d="m519.9 136.6l-4 4-21.1 21.1-25.2-25.1c-5.8-5.9-5.8-15.3 0-21.2 2.9-2.9 6.8-4.4 10.6-4.4 3.8 0 7.6 1.5 10.6 4.4l4 4 3.9-4c3-2.9 6.8-4.4 10.6-4.4 3.8 0 7.7 1.5 10.6 4.4 5.8 5.9 5.8 15.3 0 21.2z"/>
		</g>
		<g id="&lt;Group&gt;">
			<path id="&lt;Path&gt;" class="s4" d="m1010.2 811.9c0 19.6-211.7 35.4-472.8 35.4-261.1 0-472.8-15.8-472.8-35.4 0-19.5 211.7-35.3 472.8-35.3 261.1 0 472.8 15.8 472.8 35.3z"/>
			<g id="&lt;Group&gt;">
				<g id="&lt;Group&gt;">
					<path id="&lt;Path&gt;" class="s5" d="m939 815.4h-204.7v-297.6h164.7c22.1 0 40 17.9 40 39.9z"/>
					<g id="&lt;Group&gt;">
						<path id="&lt;Path&gt;" class="s6" d="m939 815.4h-75.5v-261.3c0-20.8 16.9-37.7 37.7-37.7 20.9 0 37.8 16.9 37.8 37.7z"/>
						<path id="&lt;Path&gt;" class="s7" d="m909.4 564c0 4.4-3.5 7.9-7.9 7.9-4.3 0-7.9-3.5-7.9-7.9 0-4.4 3.6-7.9 7.9-7.9 4.4 0 7.9 3.5 7.9 7.9z"/>
					</g>
				</g>
				<path id="&lt;Path&gt;" class="s3" d="m758.7 815.4h-630.7v-467.5c0-28.2 22.9-51.1 51.1-51.1h528.5c28.2 0 51.1 22.9 51.1 51.1z"/>
				<g id="&lt;Group&gt;">
					<path id="&lt;Path&gt;" class="s6" d="m324.3 590.7h539.2"/>
					<path id="&lt;Path&gt;" class="s8" d="m128 738.2h735.5"/>
				</g>
				<g id="&lt;Group&gt;">
					<path id="&lt;Path&gt;" class="s5" d="m299.3 515.2h-127.3c0 0-11.9-139 0-175.1 11.9-36.1 37.3-43.3 37.3-43.3h-30.2c-28.2 0-51.1 22.9-51.1 51.1v467.5h126.4c0 0 0-184.2 0-242.3 0-58 44.9-57.9 44.9-57.9z"/>
					<g id="&lt;Group&gt;">
						<path id="&lt;Path&gt;" class="s6" d="m338 815.4h-83.6v-257.2c0-23.1 18.7-41.8 41.8-41.8 23.1 0 41.8 18.7 41.8 41.8z"/>
						<path id="&lt;Path&gt;" class="s7" d="m304.1 564c0 4.4-3.5 7.9-7.9 7.9-4.4 0-7.9-3.5-7.9-7.9 0-4.4 3.5-7.9 7.9-7.9 4.4 0 7.9 3.5 7.9 7.9z"/>
					</g>
					<path id="&lt;Path&gt;" class="s9" d="m172 515.2c0 0-36.8-200.3 38.1-217.7"/>
				</g>
			</g>
		</g>
		<g id="&lt;Group&gt;">
			<g id="&lt;Group&gt;">
				<g id="&lt;Group&gt;">
					<g id="&lt;Group&gt;">
						<path id="&lt;Path&gt;" class="s2" d="m796.4 831.2c0 0 52.5 12.8 55.2 24 2.6 11.2-35.9 0.8-46.3 4.4-10.4 3.6-29.9 10.9-36.5 1.3-6.5-9.7-2.3-32.6-2.3-32.6z"/>
						<g id="&lt;Group&gt;">
							<path id="&lt;Path&gt;" class="s10" d="m792.2 863.8c-5.1-7-17.2-21.9-27-23-0.3 6.9 0.3 15.2 3.6 20.1 4.4 6.3 14.2 5.3 23.4 2.9z"/>
							<path id="&lt;Path&gt;" class="s10" d="m851.6 855.2c-0.8-3.2-5.7-6.6-12.2-9.7-2.9 4.2-6.3 9.8-7.4 14.6 11.1 0.9 21 0.9 19.6-4.9z"/>
						</g>
					</g>
					<g id="&lt;Group&gt;">
						<path id="&lt;Path&gt;" class="s11" d="m765.8 812.5l0.7 15.8c0 0 19.9 10.2 29.9 2.9l-1.1-19.3z"/>
						<path id="&lt;Path&gt;" class="s12" d="m766.5 828.3c0 0 17.8 9.9 29.9 2.9"/>
					</g>
					<g id="&lt;Group&gt;">
						<path id="&lt;Path&gt;" class="s2" d="m763.4 802c0 0-4.4 9.7-0.5 11.2 3.8 1.4 34.4 2.5 35.6 0.3 1.2-2.1 0-12.4 0-12.4z"/>
						<path id="&lt;Path&gt;" class="s12" d="m762 806c0 0-4.4 8 4.6 7.9 9.1-0.2 31.4 2.3 31.9-0.4 0.5-2.6 0.5-6.6 0.5-6.6"/>
					</g>
				</g>
				<path id="&lt;Path&gt;" class="s13" d="m618.8 606.3c0 0 14.5 27.4 43.7 39.2 29.2 11.8 62.2 22.9 68.4 74.5 6.2 51.7 6.1 86.6 35.6 86 29.5-0.6 49.6 0 50.2-23 0.5-23.1-6.2-71.5-6.2-71.5 0 0 41.2-83.1 13-121.9-28.1-38.8-89.7-32.2-100.1-40.9z"/>
				<g id="&lt;Group&gt;">
					<path id="&lt;Path&gt;" class="s14" d="m723.4 579c0 0 81.8 34 87.1 132.5"/>
					<path id="&lt;Path&gt;" class="s15" d="m759.1 602.8c0 0-6.4 52 44.6 69.3 0 0-6-21.4-16.2-35.8-10.3-14.4-28.4-33.5-28.4-33.5z"/>
				</g>
				<path id="&lt;Path&gt;" class="s15" d="m798.8 568.8c3.2 12.6 13.6 46.7 34.6 57.6 0-13.7-2.6-26.7-9.9-36.8-6.7-9.2-15.3-15.9-24.7-20.8z"/>
			</g>
			<g id="&lt;Group&gt;">
				<g id="&lt;Group&gt;">
					<path id="&lt;Path&gt;" class="s11" d="m803.2 509.8c-2.3-0.4-4.2-0.9-5.3-1.1 1-7.3 0.5-19.3 0.1-25.7l4.1 0.6c0 0 0.7-0.2 1.9-0.5 6.1-1.7 24.9-6.7 26.3-4.6 1.7 2.4-7.4 7.4-8.1 7.8 1.1 0 24-1.3 24.8 2.2 0.8 3.5-14.6 4.2-15.4 4.2 0.9 0 17.1 0.4 17.5 2.9 0.4 2.5-17.9 5.2-19.4 5.5 1.4 0 16.5-0.1 17.3 1.9 0.8 2.1-18.2 4.3-19.4 4.4 0.9 0.1 15 2.1 14.5 4.7-0.8 4.9-26.6 0.2-38.9-2.3z"/>
					<path id="&lt;Path&gt;" class="s16" d="m581.5 380.1c0 0-59 19.7-42.2 96.3 16.8 76.6 65.1 141.1 78 136.4 12.8-4.6 105.5-59.7 106.1-64.1 0.6-4.3-4.2-39.9-4.2-39.9 0 0 44.4 14.2 82.3 9v-39.7c0 0-58.9-6.9-78.1-18.9-19.2-12.1-53.1-79.1-97.5-79.1z"/>
					<path id="&lt;Path&gt;" class="s17" d="m655.5 414.8c0 0 55 61.4 61.3 99.4"/>
					<g id="&lt;Group&gt;">
						<path id="&lt;Path&gt;" class="s11" d="m711 512.1c-2.3 0.8-4.1 1.3-5.2 1.7-2.7-6.8-9.2-17-12.7-22.4l3.9-1.5c0 0 0.5-0.5 1.3-1.4 4.5-4.5 18.3-18.2 20.6-17.1 2.6 1.3-2.8 10.2-3.2 10.9 0.9-0.6 20.2-13.1 22.6-10.5 2.5 2.7-10.5 10.9-11.3 11.4 0.8-0.5 15.1-8.2 16.7-6.2 1.6 1.9-12.9 13.4-14.1 14.4 1.2-0.7 14.2-8.4 15.9-7 1.8 1.4-13.6 12.8-14.6 13.5 0.9-0.4 14-5.7 14.9-3.2 1.7 4.7-23 13.5-34.8 17.4z"/>
						<path id="&lt;Path&gt;" class="s17" d="m575 461.2c0 0 19.9 39.2 31.4 44.9 0 0 67.4-31.8 75.1-27.7 7.8 4.1 27.8 34.3 27.4 51.8 0 0-86.6 33.8-117.2 25.9"/>
					</g>
				</g>
				<g id="&lt;Group&gt;">
					<path id="&lt;Path&gt;" class="s2" d="m930.3 517.3h-114.3l-18.1-157.3c0 0 12.5-10.6 75.2-10.6 62.7 0 75.2 10.6 75.2 10.6z"/>
					<g id="&lt;Group&gt;">
						<path id="&lt;Path&gt;" class="s3" d="m877.6 349.4q-2.2 0-4.5 0-6.1 0-11.6 0.1l3.6 167.8h16.1z"/>
						<path id="&lt;Path&gt;" class="s3" d="m848.4 517.3l-19.6-165.6c-6.5 0.9-11.8 1.8-15.9 2.8l19.3 162.8z"/>
						<path id="&lt;Path&gt;" class="s3" d="m926.4 353.1c-4.4-0.8-9.7-1.5-16-2.1l-12.3 166.3h16.1z"/>
					</g>
					<path id="&lt;Path&gt;" class="s12" d="m816 517.3h114.3l12.4-108"/>
				</g>
			</g>
			<g id="&lt;Group&gt;">
				<g id="&lt;Group&gt;">
					<path id="&lt;Path&gt;" class="s18" d="m579.3 349.4l2.2 30.7c0 0 34.2 7.6 44.4 0l-1.5-19.1z"/>
					<path id="&lt;Path&gt;" class="s19" d="m625.3 380.5q0.3-0.2 0.6-0.4l-1.5-19.1-45.1-11.6c0 0 15.3 27.6 46 31.1z"/>
				</g>
				<g id="&lt;Group&gt;">
					<path id="&lt;Path&gt;" class="s18" d="m666.7 295.9c0 39.4-9.8 67.8-43 69.8-41.3 2.6-64.9-30.4-64.9-69.8 0-39.4 24.1-71.3 53.9-71.3 29.9 0 54 31.9 54 71.3z"/>
					<g id="&lt;Group&gt;">
						<path id="&lt;Path&gt;" class="s18" d="m664.4 284.7c0 0 12.9-13.4 16.6-0.8 3.3 11.1-3.7 23-19 18.7z"/>
						<path id="&lt;Path&gt;" class="s20" d="m676.7 288.2c0 0-7.5 5.5-13 4.7-5.6-0.8 0 3.9 0 3.9 0 0 9.5-0.4 13-8.6z"/>
					</g>
					<g id="&lt;Group&gt;">
						<path id="&lt;Path&gt;" class="s18" d="m555.1 284.7c0 0-12.9-13.4-16.6-0.8-3.3 11.1 3.8 23 19.1 18.7z"/>
						<path id="&lt;Path&gt;" class="s20" d="m542.9 288.2c0 0 7.4 5.5 13 4.7 5.5-0.8 0 3.9 0 3.9 0 0-9.6-0.4-13-8.6z"/>
					</g>
					<path id="&lt;Compound Path&gt;" fill-rule="evenodd" class="s21" d="m699.8 260.3c0 0-7.1 11.9-24.2 15.9-1.9 0.4-3.7 0.6-5.3 0.4 3.5 22.1 8.5 85.4-46.6 89.1-66.2 4.6-72-58.9-72.9-108.9-9.3-4.2-6-20-0.3-31.9 8-16.4 21-14.6 21-14.6 0 0-0.9-9.9 7.9-14.9 8.9-4.9 24.2 4.1 29.2 3.8 5.1-0.4 9.2-8.7 22.5-6.9 13.2 1.9 11.2 10.3 20.3 15.2 9.2 5 13.3-2.1 26.6 6.9 13.2 9 5 28.6 7.8 36 2.9 7.5 14 9.9 14 9.9zm-40.2 10.6c-5.6-5.7-9.4-13.6-15.3-14.9-10-2.2-11.5-11.5-11.5-11.5 0 0-7.6 8.4-18.1 7.8-10.4-0.7-18.4-13.4-18.4-13.4 0 0-0.6 11.2-10.7 16.5-7.1 3.7-12.8 2.1-15.6 0.9-1 9.7-2.9 44.1 20.9 43.2 27.6-1 59.9 2.3 63.6-5.2 2.9-5.9 4.5-18.4 5.1-23.4z"/>
					<path id="&lt;Path&gt;" class="s22" d="m570 256.3c0 0 9 4.9 15.6-0.9 6.7-5.8 10.7-16.5 10.7-16.5 0 0 5.9 12.4 16.4 13.1 10.6 0.7 20.1-7.5 20.1-7.5 0 0 0.3 7.1 7.6 10.1 7.4 3 13 6.4 19.2 16.3"/>
					<g id="&lt;Group&gt;">
						<g id="&lt;Group&gt;">
							<path id="&lt;Path&gt;" class="s23" d="m629.3 290.9q0 0 0 0c1 0 1.8-0.8 1.8-1.8 0-3.2 2.7-5.9 6-6 3.3-0.1 6 2.5 6 5.8-0.1 0.9 0.7 1.7 1.7 1.7 1 0 1.8-0.8 1.8-1.8 0-2.5-1-4.8-2.8-6.6-1.8-1.7-4.2-2.6-6.7-2.6-5.2 0.1-9.5 4.4-9.5 9.6 0 0.9 0.7 1.7 1.7 1.7z"/>
						</g>
						<g id="&lt;Group&gt;">
							<path id="&lt;Path&gt;" class="s23" d="m590.6 290.9q0 0 0 0c1 0 1.8-0.8 1.8-1.8 0-3.2 2.7-5.9 6-6 3.4-0.1 6 2.5 6 5.8-0.1 0.9 0.7 1.7 1.7 1.7 1 0 1.8-0.8 1.8-1.8 0-2.5-1-4.8-2.8-6.6-1.7-1.7-4.2-2.6-6.7-2.6-5.2 0.1-9.5 4.4-9.5 9.6 0 0.9 0.7 1.7 1.7 1.7z"/>
						</g>
						<g id="&lt;Group&gt;">
							<path id="&lt;Path&gt;" class="s24" d="m622.8 297.1c-1.5 1.4-8 1.5-9.7 0.1-0.4-0.3-0.5-1.6-0.4-3.3 0.4-5.6 3.3-13.7 5.8-13.7 0.2 0 0.4 0 0.6 0.1 3 1.8 5.2 15.5 3.7 16.8z"/>
							<path id="&lt;Path&gt;" class="s25" d="m622.8 297.1c-1.5 1.4-8 1.5-9.7 0.1-0.4-0.3-0.5-1.6-0.4-3.3 7-2 7-8.4 6.4-13.6 3 1.8 5.2 15.5 3.7 16.8z"/>
						</g>
						<g id="&lt;Group&gt;">
							<path id="&lt;Path&gt;" class="s21" d="m586.3 269.1l18.4-6.2c0 0 1 2.6-1.1 4.1-4.3 3.2-18 8.6-17.3 2.1z"/>
						</g>
						<g id="&lt;Group&gt;">
							<path id="&lt;Path&gt;" class="s21" d="m651.6 269.1l-18.3-6.2c0 0-1 2.6 1.1 4.1 4.3 3.2 18 8.6 17.2 2.1z"/>
						</g>
						<path id="&lt;Path&gt;" class="s26" d="m609.1 309.7c0 0 7.7 8.2 16.7 0"/>
					</g>
					<path id="&lt;Path&gt;" class="s27" d="m597.9 363.5c0 0 52.2 13.1 68.8-28.7"/>
				</g>
			</g>
		</g>
		<g id="&lt;Group&gt;">
			<g id="&lt;Group&gt;">
				<g id="&lt;Group&gt;">
					<g id="&lt;Group&gt;">
						<path id="&lt;Path&gt;" class="s2" d="m719.2 794.9c0 0 44.3-31 54.5-25.6 10.2 5.3-23.1 27.4-27.2 37.6-4.2 10.1-11.5 29.7-23.1 28.2-11.6-1.4-26-19.7-26-19.7z"/>
						<g id="&lt;Group&gt;">
							<path id="&lt;Path&gt;" class="s15" d="m740.9 819.5c-8.5-0.7-27.7-1.5-35 5.1 5 4.8 11.6 9.8 17.5 10.5 7.5 1 13.3-7.1 17.5-15.6z"/>
							<path id="&lt;Path&gt;" class="s15" d="m773.7 769.3c-2.9-1.6-8.6-0.1-15.3 2.7 1.2 5 3.2 11.2 6.1 15.2 8-7.8 14.5-15.1 9.2-17.9z"/>
						</g>
					</g>
					<g id="&lt;Group&gt;">
						<path id="&lt;Path&gt;" class="s11" d="m685 805.5l12.4 9.9c0 0 20.8-8.2 21.8-20.5l-15.1-11.9z"/>
						<path id="&lt;Path&gt;" class="s12" d="m697.4 815.4c0 0 19.2-6.9 21.8-20.5"/>
					</g>
					<g id="&lt;Group&gt;">
						<path id="&lt;Path&gt;" class="s2" d="m675.5 800.3c0 0 4.5 9.8 8.1 7.8 3.6-1.9 24.6-24.2 23.8-26.5-0.9-2.3-9.4-8.3-9.4-8.3z"/>
						<path id="&lt;Path&gt;" class="s12" d="m677.6 804.1c0 0 3.2 8.6 9 1.7 5.8-7 22.5-22.1 20.8-24.2-1.7-2.1-4.7-4.8-4.7-4.8"/>
					</g>
				</g>
				<path id="&lt;Path&gt;" class="s10" d="m519.6 528.2c0 0 81.9-87.1 130.5-59.6 48.5 27.5-65.3 155.9-65.3 155.9 0 0 30.2 37.7 54.5 66.8 24.2 29.2 67.9 71.2 63.6 80.9-4.3 9.7-24.8 32.4-31.8 31.8-7-0.5-118.1-108.3-130-115.9-11.8-7.5-90.8-16.5-118.4-50.6z"/>
				<path id="&lt;Path&gt;" class="s28" d="m605.3 649.9c-11.8-14.6-20.5-25.4-20.5-25.4 0 0 0.8-0.9 2.2-2.5-6.1 6.4-12.8 17.1-16.7 20.8 0 0 17.3 10.7 35 7.1z"/>
				<g id="&lt;Group&gt;">
					<g id="&lt;Group&gt;">
						<g id="&lt;Group&gt;">
							<path id="&lt;Path&gt;" class="s2" d="m542.4 668c0 0 37.7 38.7 34 49.6-3.7 10.9-30.7-18.4-41.5-20.9-10.7-2.4-31.1-6.6-31.6-18.2-0.4-11.7 15.3-28.9 15.3-28.9z"/>
							<g id="&lt;Group&gt;">
								<path id="&lt;Path&gt;" class="s15" d="m521.5 693.3c-0.6-8.6-2.8-27.6-10.6-33.8-3.9 5.8-7.8 13.1-7.6 19 0.3 7.6 9.2 12 18.2 14.8z"/>
								<path id="&lt;Path&gt;" class="s15" d="m576.4 717.6c1.1-3.1-1.3-8.5-5.2-14.7-4.6 2-10.5 5-14 8.5 9 6.6 17.3 11.9 19.2 6.2z"/>
							</g>
						</g>
						<g id="&lt;Group&gt;">
							<path id="&lt;Path&gt;" class="s11" d="m526.5 635.9l-7.9 13.7c0 0 0 16.6 23.8 18.4l9.4-16.9z"/>
							<path id="&lt;Path&gt;" class="s12" d="m518.6 649.6c0 0-1.2 15.7 23.8 18.4"/>
						</g>
						<g id="&lt;Group&gt;">
							<path id="&lt;Path&gt;" class="s2" d="m527.7 629.2c0 0-4.7 6.5-3.7 9.2 1.1 2.7 25.9 14.3 27.5 13.7 1.7-0.7 7.3-8.5 7.3-8.5 0 0-28.7-12.4-31.1-14.4z"/>
							<path id="&lt;Path&gt;" class="s12" d="m537.8 646.6c0 0 9.8 6.9 13.7 5.5 4-1.5 7.3-8.5 7.3-8.5"/>
						</g>
						<path id="&lt;Path&gt;" class="s12" d="m584.8 624.5c0 0-13.9 22.1-20.2 20.9-6.3-1.1-36.7-14.3-39.4-18.3-2.7-4 23.2-66.2 45.1-84.1"/>
					</g>
					<path id="&lt;Path&gt;" class="s12" d="m503.3 571.9c0 0 26.6 11.5 34.1 20"/>
				</g>
				<path id="&lt;Path&gt;" class="s28" d="m625.9 463.4c2.3 13.8 9.7 43.7 31.1 52.1 7.6-20.7 7.9-38.5-6.9-46.9-7.5-4.2-15.7-5.7-24.2-5.2z"/>
			</g>
			<g id="&lt;Group&gt;">
				<path id="&lt;Path&gt;" class="s15" d="m401.6 620.8c0 0 6.1 25.3 21.1 16.7 14.9-8.6 43.8-44.6 54.7-50.2 10.9-5.6 40.5-43.9 43.9-49.6 3.4-5.7-9-19.9-9-19.9z"/>
				<path id="&lt;Path&gt;" class="s13" d="m349.3 354c0 0-59.9 13.4-57.4 63.1 2.5 49.7 25.5 115.8 74.6 154.8 0 0 11.3 53.3 26.1 55.2 14.9 1.8 85-52 90.6-59.7 8.3-11.3 35.4-34.5 34.2-52.5-0.5-7.7 0.4-25.7-12.7-51.6-2.8-5.4 1.9-8-1.2-13.5-16.6-30.3-54.8-68.8-71.5-80.5-25.4-17.7-36.7-13.1-36.7-13.1z"/>
				<path id="&lt;Path&gt;" class="s29" d="m439.2 406.4c0 0 46.9 100.9 76.4 117.4"/>
				<g id="&lt;Group&gt;">
					<g id="&lt;Group&gt;">
						<path id="&lt;Path&gt;" class="s11" d="m476.1 598.9c0.6-2.5-15.5-8.8-15.5-8.8 0 0 15.5 5.1 16 1.4 0.5-3.6-21.5-10.2-22.5-10.6 0.7-0.1 11-1.7 10.3-4.5-0.6-2.5-20-4.2-26.3-4.7-1.2-0.1-2-0.2-2-0.2l-9.1-5.1c-2.6 6.6-2.9 20.7-8 25.9l3.7 0.8c0 0 2.1 1.4 5.5 3.4 10.6 6.6 33.2 19.8 35.7 15.5 1.4-2.4-12-9.4-12-9.4 0 0 19.8 4.8 19.7 2.5 0-2.2-14.3-7.2-15.6-7.7 1.6 0.3 19.6 4 20.1 1.5z"/>
						<path id="&lt;Path&gt;" class="s12" d="m428.2 596.5c10.6 6.6 33.2 19.8 35.7 15.5 1.4-2.4-12-9.4-12-9.4 0 0 19.8 4.8 19.7 2.5 0-2.2-14.3-7.2-15.6-7.7 1.6 0.3 19.6 4 20.1 1.5 0.6-2.5-15.5-8.8-15.5-8.8 0 0 15.5 5.1 16 1.4 0.5-3.6-21.5-10.2-22.5-10.6"/>
					</g>
					<path id="&lt;Path&gt;" class="s15" d="m422.7 594l-12.8-4.5 11.3-25.5 10.2 3.1z"/>
					<path id="&lt;Path&gt;" class="s14" d="m341.6 425.7c0 0 15.8 81.5 46.4 99 30.5 17.5 38.1 30.7 33.3 50.9-4.6 19.8-35.6 24.9-54.8-3.7"/>
				</g>
				<path id="&lt;Path&gt;" class="s13" d="m499.6 468.8l8.1-80.3 41.2 3c0 0 13.3 119.7-31.5 123.4z"/>
				<path id="&lt;Path&gt;" class="s11" d="m507.7 388.5c0 0 9.5-26.3 23.5-27.5 13.9-1.1 31.7 29.8 31.7 29.8 0 0-40.2 2-55.2-2.3z"/>
			</g>
			<g id="&lt;Group&gt;">
				<path id="&lt;Path&gt;" class="s2" d="m588.3 553h-114.2l-18.1-157.3c0 0 12.5-10.7 75.2-10.7 62.7 0 75.2 10.7 75.2 10.7z"/>
				<g id="&lt;Group&gt;">
					<path id="&lt;Path&gt;" class="s3" d="m535.6 385q-2.1 0-4.4 0-6.2 0-11.7 0.2l3.7 167.8h16.1z"/>
					<path id="&lt;Path&gt;" class="s3" d="m506.4 553l-19.6-165.6c-6.5 0.8-11.7 1.8-15.9 2.8l19.3 162.8z"/>
					<path id="&lt;Path&gt;" class="s3" d="m584.5 388.7c-4.5-0.8-9.8-1.5-16-2.1l-12.4 166.4h16.2z"/>
				</g>
				<path id="&lt;Path&gt;" class="s12" d="m474.1 553h114.2l12.4-108.1"/>
			</g>
			<g id="&lt;Group&gt;">
				<g id="&lt;Group&gt;">
					<path id="&lt;Path&gt;" class="s11" d="m352.1 330.6l-2.8 23.4c0 0 25.1 14.3 46 2.2l-1.5-20.9z"/>
					<path id="&lt;Path&gt;" class="s30" d="m395.1 352.9l-1.3-17.6-41.7-4.7-0.4 3.4c5.5 7.2 20.4 22.9 43.4 18.9z"/>
				</g>
				<g id="&lt;Group&gt;">
					<g id="&lt;Group&gt;">
						<path id="&lt;Path&gt;" class="s11" d="m431.3 268.5c0 0 12.9-13.4 16.6-0.8 3.3 11.1-3.8 23.1-19.1 18.8z"/>
						<path id="&lt;Path&gt;" class="s31" d="m443.5 272c0 0-7.4 5.6-13 4.8-5.5-0.8 0 3.9 0 3.9 0 0 9.6-0.4 13-8.7z"/>
					</g>
					<g id="&lt;Group&gt;">
						<path id="&lt;Path&gt;" class="s11" d="m334.4 267.5c0 0-15.1-15.7-19.4-1-3.8 13 4.4 26.9 22.2 22z"/>
						<path id="&lt;Path&gt;" class="s31" d="m320.1 271.6c0 0 8.7 6.4 15.2 5.5 6.4-1 0 4.5 0 4.5 0 0-11.2-0.4-15.2-10z"/>
					</g>
					<path id="&lt;Path&gt;" class="s11" d="m435.6 270.4c0 38.9-12.6 70.4-53.9 70.4-41.3 0-53.9-31.5-53.9-70.4 0-38.9 24.2-70.4 53.9-70.4 29.8 0 53.9 31.5 53.9 70.4z"/>
					<g id="&lt;Group&gt;">
						<path id="&lt;Path&gt;" class="s32" d="m327.9 274.3c0.5 24.3 6.3 45.4 21.6 57 14.3-2.7 25.2-15.3 25.2-30.5 0-17.1-13.9-30.9-31-30.9-5.8 0-11.2 1.6-15.8 4.4z"/>
						<path id="&lt;Path&gt;" class="s32" d="m406.6 300.8c0 10.4 5.4 19.5 13.6 24.6 11-12.6 15.2-31.9 15.4-53.7-16 0.1-29 13.1-29 29.1z"/>
					</g>
					<path id="&lt;Path&gt;" class="s33" d="m319.4 263.2c0 0 5.3 10.3 12.8 10.5 7.6 0.1 3.1-51.9 21.6-55.5 18.5-3.7 22.4 10.9 35.5 10.3 13.2-0.6 21.1-12.3 31.4-4 10.3 8.4 9.3 43.3 13.9 45.4 4.5 2 7.9-4.3 7.9-4.3l-1.8-16.7c0 0 1.7 1.6 5.6-1.8 0 0-6-3-7.2-11.3-1.2-8.3-16.4-50.7-56.3-50.2-39.8 0.5-56.2 29.9-58.2 36.1-1.9 6.2-6.9 15.7-11.4 17.5 0 0 2.4 3 6.9 1 0 0-3.8 14.2-8 17.2 0 0 4.9 3 8.2-1.6z"/>
					<g id="&lt;Group&gt;">
						<g id="&lt;Group&gt;">
							<path id="&lt;Path&gt;" class="s23" d="m402.7 268.8q0 0 0.1 0c1-0.1 1.8-0.9 1.8-1.9 0-3.4 2.8-6.2 6.2-6.2 3.5-0.1 6.2 2.6 6.2 6 0 1 0.8 1.7 1.9 1.7 1 0 1.8-0.8 1.8-1.8 0-2.6-1-5-2.9-6.8-1.8-1.8-4.3-2.8-6.9-2.7-5.5 0.1-9.9 4.5-10 9.9 0 1 0.8 1.8 1.8 1.8z"/>
						</g>
						<g id="&lt;Group&gt;">
							<path id="&lt;Path&gt;" class="s23" d="m362.5 268.8q0 0 0 0c1-0.1 1.9-0.9 1.9-1.9 0-3.4 2.8-6.2 6.2-6.2 3.5-0.1 6.2 2.6 6.2 6 0 1 0.8 1.7 1.8 1.7 1 0 1.9-0.8 1.9-1.8 0-2.6-1-5-2.9-6.8-1.9-1.8-4.4-2.8-7-2.7-5.4 0.1-9.9 4.5-9.9 9.9 0 1 0.8 1.8 1.8 1.8z"/>
						</g>
						<g id="&lt;Group&gt;">
							<path id="&lt;Path&gt;" class="s31" d="m396 275.2c-1.6 1.5-8.3 1.6-10.1 0.1-0.5-0.3-0.5-1.6-0.4-3.4 0.4-5.9 3.4-14.3 6-14.3 0.2 0 0.4 0 0.6 0.2 3.1 1.8 5.4 16 3.9 17.4z"/>
							<path id="&lt;Path&gt;" class="s25" d="m396 275.2c-1.6 1.5-8.3 1.6-10.1 0.1-0.5-0.3-0.5-1.6-0.4-3.4 7.2-2.1 7.2-8.7 6.6-14.1 3.1 1.8 5.4 16 3.9 17.4z"/>
						</g>
						<g id="&lt;Group&gt;">
							<path id="&lt;Path&gt;" class="s33" d="m358 246.1l19.2-6.5c0 0 1 2.7-1.2 4.3-4.5 3.4-18.7 8.9-18 2.2z"/>
						</g>
						<g id="&lt;Group&gt;">
							<path id="&lt;Path&gt;" class="s33" d="m426 246.1l-19.2-6.5c0 0-1 2.7 1.2 4.3 4.5 3.4 18.7 8.9 18 2.2z"/>
						</g>
						<path id="&lt;Path&gt;" class="s34" d="m381.7 283.5c0 0 8 8.5 17.4 0"/>
					</g>
					<path id="&lt;Path&gt;" class="s27" d="m365.9 339c0 0 43.7 7.7 58.8-19.8"/>
				</g>
			</g>
		</g>
		<g id="&lt;Group&gt;">
			<path id="&lt;Path&gt;" class="s4" d="m1443.1 891.5c0 16.9-151.6 30.7-338.7 30.7-187.1 0-338.7-13.8-338.7-30.7 0-17 151.6-30.8 338.7-30.8 187.1 0 338.7 13.8 338.7 30.8z"/>
			<path id="&lt;Path&gt;" class="s35" d="m827.4 727l-827.4 273v-1000h822.1l555.7 399.7z"/>
			<g id="&lt;Group&gt;">
				<g id="&lt;Group&gt;">
					<path id="&lt;Path&gt;" class="s13" d="m1377.8 727h-550.4v-327.3h550.4z"/>
					<g id="&lt;Group&gt;">
						<g id="&lt;Group&gt;">
							<path id="&lt;Path&gt;" class="s13" d="m930.7 743.2h-22.5v-22.5h22.5z"/>
							<path id="&lt;Path&gt;" class="s13" d="m966.9 758.6h-94.8v-18.8h94.8z"/>
						</g>
						<g id="&lt;Group&gt;">
							<path id="&lt;Path&gt;" class="s13" d="m1297 743.2h-22.5v-22.5h22.5z"/>
							<path id="&lt;Path&gt;" class="s13" d="m1333.1 758.6h-94.8v-18.8h94.8z"/>
						</g>
					</g>
					<path id="&lt;Path&gt;" class="s36" d="m1218.8 614.4h-232.5v-102.1h232.5z"/>
				</g>
				<g id="&lt;Group&gt;">
					<path id="&lt;Path&gt;" class="s33" d="m1410.4 891.5h-615.6v-136.5h615.6z"/>
					<path id="&lt;Path&gt;" class="s37" d="m1410.4 755h-615.6v136.5"/>
				</g>
			</g>
		</g>
	</g>
</svg>