<?xml version="1.0" encoding="utf-8"?>
<!-- Generator: Adobe Illustrator 27.5.0, SVG Export Plug-In . SVG Version: 6.00 Build 0)  -->
<svg version="1.1" id="Layer_1" xmlns="http://www.w3.org/2000/svg" xmlns:xlink="http://www.w3.org/1999/xlink" x="0px" y="0px"
	 viewBox="0 0 1159 771" style="enable-background:new 0 0 1159 771;" xml:space="preserve">
<g>
	<rect style="fill:#FFFFFF;" width="1159" height="771"/>
	<g>
		<g>
			<g>
				<path style="fill:#EAF4F5;" d="M554.168,90.096c91.95,18.116,138.894,122.253,286.968,214.92
					c148.076,92.667,115.474,454.511-118.385,395.496c-223.104-56.302-233.43-51.855-379.547-46.656
					C160.317,660.364,263.183,32.774,554.168,90.096z"/>
				<path style="fill:#EAF4F5;" d="M803.545,242.758c-43.153-34.341-79.094-94.273-58.656-152.016
					c20.437-57.743,62.631,49.74,96.582,85.544C890.602,228.094,893.861,314.627,803.545,242.758z"/>
			</g>
			<g>
				<rect x="269.873" y="707.045" style="fill:#D8EEF0;" width="638.082" height="4.442"/>
			</g>
			<g>
				<defs>
					<path id="SVGID_1_" d="M554.168,90.096c91.95,18.116,138.894,122.253,286.968,214.92
						c148.076,92.667,115.474,454.511-118.385,395.496c-223.104-56.302-233.43-51.855-379.547-46.656
						C160.317,660.364,263.183,32.774,554.168,90.096z"/>
				</defs>
				<clipPath id="SVGID_00000183235963001602019310000003968620448366715581_">
					<use xlink:href="#SVGID_1_"  style="overflow:visible;"/>
				</clipPath>
				<g style="clip-path:url(#SVGID_00000183235963001602019310000003968620448366715581_);">
					<g>
						<g>
							<g>
								<g>
									<polygon style="fill:#D8EEF0;" points="399.964,277.823 399.964,253.941 439.577,253.941 439.577,139.794 450.499,139.794 
										450.499,253.941 493.168,253.941 493.168,277.823 516.024,277.823 516.024,756.421 351.2,756.421 351.2,277.823 									
										"/>
									<rect x="351.2" y="277.823" style="fill:#C3E4E8;" width="22.852" height="430.521"/>
								</g>
								<g>
									<rect x="433.612" y="391.829" style="fill:#D8EEF0;" width="164.825" height="364.592"/>
									<rect x="433.612" y="391.829" style="fill:#C3E4E8;" width="22.853" height="364.592"/>
									<rect x="551.787" y="407.361" style="fill:#C3E4E8;" width="23.651" height="9.816"/>
									<rect x="511.965" y="407.361" style="fill:#C3E4E8;" width="23.65" height="9.816"/>
									<rect x="551.787" y="443.102" style="fill:#C3E4E8;" width="23.651" height="9.816"/>
									<rect x="511.965" y="443.102" style="fill:#C3E4E8;" width="23.65" height="9.816"/>
									<rect x="472.142" y="443.102" style="fill:#C3E4E8;" width="23.651" height="9.816"/>
									<rect x="551.787" y="478.846" style="fill:#C3E4E8;" width="23.651" height="9.816"/>
									<rect x="472.142" y="478.846" style="fill:#C3E4E8;" width="23.651" height="9.816"/>
									<rect x="511.965" y="496.715" style="fill:#C3E4E8;" width="23.65" height="9.816"/>
									<rect x="551.787" y="514.586" style="fill:#C3E4E8;" width="23.651" height="9.816"/>
									<rect x="511.965" y="532.458" style="fill:#C3E4E8;" width="23.65" height="9.816"/>
									<rect x="551.787" y="550.326" style="fill:#C3E4E8;" width="23.651" height="9.817"/>
									<rect x="472.142" y="550.326" style="fill:#C3E4E8;" width="23.651" height="9.817"/>
									<rect x="551.787" y="583.357" style="fill:#C3E4E8;" width="23.651" height="9.816"/>
									<rect x="511.965" y="583.357" style="fill:#C3E4E8;" width="23.65" height="9.816"/>
									<rect x="551.787" y="619.098" style="fill:#C3E4E8;" width="23.651" height="9.816"/>
									<rect x="511.965" y="619.098" style="fill:#C3E4E8;" width="23.65" height="9.816"/>
									<rect x="472.142" y="619.098" style="fill:#C3E4E8;" width="23.651" height="9.816"/>
									<rect x="551.787" y="654.842" style="fill:#C3E4E8;" width="23.651" height="9.813"/>
									<rect x="472.142" y="654.842" style="fill:#C3E4E8;" width="23.651" height="9.813"/>
									<rect x="511.965" y="672.71" style="fill:#C3E4E8;" width="23.65" height="9.816"/>
									<rect x="472.142" y="672.71" style="fill:#C3E4E8;" width="23.651" height="9.816"/>
									<rect x="551.787" y="690.582" style="fill:#C3E4E8;" width="23.651" height="9.816"/>
									<rect x="511.965" y="708.451" style="fill:#C3E4E8;" width="23.65" height="9.816"/>
									<rect x="551.787" y="726.323" style="fill:#C3E4E8;" width="23.651" height="9.816"/>
									<rect x="472.142" y="726.323" style="fill:#C3E4E8;" width="23.651" height="9.816"/>
								</g>
								<g>
									<rect x="827.984" y="391.829" style="fill:#D8EEF0;" width="164.824" height="364.592"/>
									<rect x="827.984" y="391.829" style="fill:#C3E4E8;" width="22.856" height="364.592"/>
								</g>
								<g>
									<rect x="593.848" y="218.413" style="fill:#D8EEF0;" width="221.145" height="538.008"/>
									<rect x="593.848" y="218.413" style="fill:#C3E4E8;" width="22.854" height="538.008"/>
									<rect x="757.162" y="244.18" style="fill:#C3E4E8;" width="34.537" height="14.335"/>
									<rect x="699.012" y="244.18" style="fill:#C3E4E8;" width="34.537" height="14.335"/>
									<rect x="757.162" y="296.372" style="fill:#C3E4E8;" width="34.537" height="14.337"/>
									<rect x="699.012" y="296.372" style="fill:#C3E4E8;" width="34.537" height="14.337"/>
									<rect x="640.861" y="296.372" style="fill:#C3E4E8;" width="34.537" height="14.337"/>
									<rect x="757.162" y="348.566" style="fill:#C3E4E8;" width="34.537" height="14.335"/>
									<rect x="640.861" y="348.566" style="fill:#C3E4E8;" width="34.537" height="14.335"/>
									<rect x="699.012" y="374.663" style="fill:#C3E4E8;" width="34.537" height="14.335"/>
									<rect x="757.162" y="400.759" style="fill:#C3E4E8;" width="34.537" height="14.338"/>
									<rect x="699.012" y="426.857" style="fill:#C3E4E8;" width="34.537" height="14.335"/>
									<rect x="757.162" y="452.953" style="fill:#C3E4E8;" width="34.537" height="14.335"/>
									<rect x="640.861" y="452.953" style="fill:#C3E4E8;" width="34.537" height="14.335"/>
									<rect x="757.162" y="501.185" style="fill:#C3E4E8;" width="34.537" height="14.335"/>
									<rect x="699.012" y="501.185" style="fill:#C3E4E8;" width="34.537" height="14.335"/>
									<rect x="757.162" y="553.376" style="fill:#C3E4E8;" width="34.537" height="14.335"/>
									<rect x="699.012" y="553.376" style="fill:#C3E4E8;" width="34.537" height="14.335"/>
									<rect x="640.861" y="553.376" style="fill:#C3E4E8;" width="34.537" height="14.335"/>
									<rect x="757.162" y="605.57" style="fill:#C3E4E8;" width="34.537" height="14.335"/>
									<rect x="640.861" y="605.57" style="fill:#C3E4E8;" width="34.537" height="14.335"/>
									<rect x="699.012" y="631.666" style="fill:#C3E4E8;" width="34.537" height="14.334"/>
									<rect x="640.861" y="631.666" style="fill:#C3E4E8;" width="34.537" height="14.334"/>
									<rect x="757.162" y="657.764" style="fill:#C3E4E8;" width="34.537" height="14.335"/>
									<rect x="699.012" y="683.859" style="fill:#C3E4E8;" width="34.537" height="14.335"/>
									<rect x="757.162" y="709.955" style="fill:#C3E4E8;" width="34.537" height="14.335"/>
									<rect x="640.861" y="709.955" style="fill:#C3E4E8;" width="34.537" height="14.335"/>
								</g>
								<g>
									<rect x="941.54" y="258.515" style="fill:#D8EEF0;" width="216.749" height="497.906"/>
									<rect x="941.54" y="258.515" style="fill:#C3E4E8;" width="22.399" height="497.906"/>
									<rect x="1101.608" y="282.362" style="fill:#C3E4E8;" width="33.851" height="13.266"/>
									<rect x="1044.613" y="282.362" style="fill:#C3E4E8;" width="33.851" height="13.266"/>
									<rect x="1101.608" y="330.664" style="fill:#C3E4E8;" width="33.851" height="13.267"/>
									<rect x="1044.613" y="330.664" style="fill:#C3E4E8;" width="33.851" height="13.267"/>
									<rect x="987.619" y="330.664" style="fill:#C3E4E8;" width="33.851" height="13.267"/>
									<rect x="1101.608" y="378.967" style="fill:#C3E4E8;" width="33.851" height="13.268"/>
									<rect x="987.619" y="378.967" style="fill:#C3E4E8;" width="33.851" height="13.268"/>
									<rect x="1044.613" y="403.117" style="fill:#C3E4E8;" width="33.851" height="13.266"/>
									<rect x="1101.608" y="427.269" style="fill:#C3E4E8;" width="33.851" height="13.269"/>
									<rect x="1044.613" y="451.42" style="fill:#C3E4E8;" width="33.851" height="13.268"/>
									<rect x="1101.608" y="475.571" style="fill:#C3E4E8;" width="33.851" height="13.268"/>
									<rect x="987.619" y="475.571" style="fill:#C3E4E8;" width="33.851" height="13.268"/>
									<rect x="1101.608" y="520.21" style="fill:#C3E4E8;" width="33.851" height="13.265"/>
									<rect x="1044.613" y="520.21" style="fill:#C3E4E8;" width="33.851" height="13.265"/>
									<rect x="1101.608" y="568.512" style="fill:#C3E4E8;" width="33.851" height="13.266"/>
									<rect x="1044.613" y="568.512" style="fill:#C3E4E8;" width="33.851" height="13.266"/>
									<rect x="987.619" y="568.512" style="fill:#C3E4E8;" width="33.851" height="13.266"/>
									<rect x="1101.608" y="616.815" style="fill:#C3E4E8;" width="33.851" height="13.265"/>
									<rect x="987.619" y="616.815" style="fill:#C3E4E8;" width="33.851" height="13.265"/>
									<rect x="1044.613" y="640.966" style="fill:#C3E4E8;" width="33.851" height="13.268"/>
									<rect x="987.619" y="640.966" style="fill:#C3E4E8;" width="33.851" height="13.268"/>
									<rect x="1101.608" y="665.117" style="fill:#C3E4E8;" width="33.851" height="13.265"/>
									<rect x="1044.613" y="689.269" style="fill:#C3E4E8;" width="33.851" height="13.267"/>
									<rect x="1101.608" y="713.419" style="fill:#C3E4E8;" width="33.851" height="13.269"/>
									<rect x="987.619" y="713.419" style="fill:#C3E4E8;" width="33.851" height="13.269"/>
								</g>
								<g>
									<rect x="241.064" y="416.814" style="fill:#D8EEF0;" width="139.597" height="339.607"/>
									<rect x="241.064" y="416.814" style="fill:#C3E4E8;" width="14.427" height="339.607"/>
									<rect x="344.154" y="433.08" style="fill:#C3E4E8;" width="21.802" height="9.046"/>
									<rect x="307.447" y="433.08" style="fill:#C3E4E8;" width="21.802" height="9.046"/>
									<rect x="344.154" y="466.024" style="fill:#C3E4E8;" width="21.802" height="9.05"/>
									<rect x="307.447" y="466.024" style="fill:#C3E4E8;" width="21.802" height="9.05"/>
									<rect x="270.741" y="466.024" style="fill:#C3E4E8;" width="21.801" height="9.05"/>
									<rect x="344.154" y="498.972" style="fill:#C3E4E8;" width="21.802" height="9.047"/>
									<rect x="270.741" y="498.972" style="fill:#C3E4E8;" width="21.801" height="9.047"/>
									<rect x="307.447" y="515.444" style="fill:#C3E4E8;" width="21.802" height="9.047"/>
									<rect x="344.154" y="531.917" style="fill:#C3E4E8;" width="21.802" height="9.046"/>
									<rect x="307.447" y="548.389" style="fill:#C3E4E8;" width="21.802" height="9.05"/>
									<rect x="344.154" y="564.861" style="fill:#C3E4E8;" width="21.802" height="9.05"/>
									<rect x="270.741" y="564.861" style="fill:#C3E4E8;" width="21.801" height="9.05"/>
									<rect x="344.154" y="595.308" style="fill:#C3E4E8;" width="21.802" height="9.047"/>
									<rect x="307.447" y="595.308" style="fill:#C3E4E8;" width="21.802" height="9.047"/>
									<rect x="344.154" y="628.252" style="fill:#C3E4E8;" width="21.802" height="9.05"/>
									<rect x="307.447" y="628.252" style="fill:#C3E4E8;" width="21.802" height="9.05"/>
									<rect x="270.741" y="628.252" style="fill:#C3E4E8;" width="21.801" height="9.05"/>
									<rect x="344.154" y="661.2" style="fill:#C3E4E8;" width="21.802" height="9.046"/>
									<rect x="270.741" y="661.2" style="fill:#C3E4E8;" width="21.801" height="9.046"/>
									<rect x="307.447" y="677.672" style="fill:#C3E4E8;" width="21.802" height="9.051"/>
									<rect x="270.741" y="677.672" style="fill:#C3E4E8;" width="21.801" height="9.051"/>
									<rect x="344.154" y="694.144" style="fill:#C3E4E8;" width="21.802" height="9.05"/>
									<rect x="307.447" y="710.617" style="fill:#C3E4E8;" width="21.802" height="9.05"/>
									<rect x="344.154" y="727.093" style="fill:#C3E4E8;" width="21.802" height="9.046"/>
									<rect x="270.741" y="727.093" style="fill:#C3E4E8;" width="21.801" height="9.046"/>
								</g>
							</g>
						</g>
					</g>
					<g>
						<g>
							<g>
								<rect x="147.414" y="53.594" style="opacity:0.35;fill:#FFFFFF;" width="591.6" height="674.527"/>
								<polygon style="opacity:0.5;fill:#FFFFFF;" points="357.267,715.687 311.352,715.687 557.49,61.056 603.401,61.056 								
									"/>
								<polygon style="opacity:0.5;fill:#FFFFFF;" points="276.194,715.687 253.236,715.687 499.371,61.056 522.329,61.056 
																	"/>
								<polygon style="opacity:0.5;fill:#FFFFFF;" points="550.315,715.687 527.357,715.687 738.381,131.339 738.381,178.417 
																	"/>
							</g>
						</g>
						<g>
							<g>
								<rect x="748.309" y="39.989" style="opacity:0.35;fill:#FFFFFF;" width="591.601" height="674.529"/>
								<polygon style="opacity:0.5;fill:#FFFFFF;" points="846.148,715.687 800.233,715.687 1046.368,61.056 1092.283,61.056 
																	"/>
								<polygon style="opacity:0.5;fill:#FFFFFF;" points="765.075,715.687 742.114,715.687 988.253,61.056 1011.21,61.056 
																	"/>
								<polygon style="opacity:0.6;fill:#FFFFFF;" points="1141.972,715.687 1119.015,715.687 1330.039,131.339 1330.039,178.417 
																	"/>
							</g>
						</g>
						<g>
							<path style="fill:#EAF4F5;" d="M1364.583,175.007v-7.719h-21.254V45.623h-0.004v-0.002H751.668H738.78H147.123v15.435h12.888
								v5.45h381.517v100.783H147.123v7.719h394.405v198.086H147.123v7.717h394.405v198.086H147.123v7.72h394.405v129.071H160.131
								v4.462h-13.008v17.856H738.78h12.888h591.657v-1.435h0.004V586.615h21.254v-7.72h-21.254V380.81h21.254v-7.717h-21.254
								V175.007H1364.583z M751.725,380.81h184.258v198.086H751.725V380.81z M751.725,373.093V175.007h184.258v198.086H751.725z
								 M751.725,167.288V66.505h184.258v100.783H751.725z M751.725,586.615h184.258v129.071H751.788v4.462h-0.063V586.615z
								 M948.928,715.687V586.615h184.257v129.071H948.928z M948.928,578.896V380.81h184.257v198.086H948.928z M948.928,373.093
								V175.007h184.257v198.086H948.928z M948.928,167.288V66.505h184.257v100.783H948.928z M1146.126,66.505h184.258v100.783
								h-184.258V66.505z M554.469,66.505h184.257v100.783H554.469V66.505z M554.469,175.007h184.257v198.086H554.469V175.007z
								 M554.469,380.81h184.257v198.086H554.469V380.81z M554.469,586.615h184.257v133.533h-0.069v-4.462H554.469V586.615z
								 M1330.384,720.148h-0.066v-4.462h-184.191V586.615h184.258V720.148z M1330.384,578.896h-184.258V380.81h184.258V578.896z
								 M1330.384,373.093h-184.258V175.007h184.258V373.093z"/>
						</g>
					</g>
				</g>
			</g>
		</g>
		<g>
			<g>
				<g>
					<path style="fill:#87B8C7;" d="M304.883,528.709c0.028-0.01,0.047-0.035,0.076-0.044c0.582,0.393,1.612,0.136,1.631-0.792
						c0.171-8.68-0.962-18.423-8.524-23.942c-8.116-5.928-20.127-5.953-29.709-6.108c-0.405-0.01-0.924,0.316-0.981,0.741
						C264.519,519.69,284.74,536.242,304.883,528.709z"/>
				</g>
				<g>
					<path style="fill:#87B8C7;" d="M314.531,538.706c0.088,0.278,0.285,0.522,0.643,0.633c7.083,2.179,15.057,0.186,19.772-5.716
						c5.547-6.94,5.107-16.706,8.246-24.695c0.352-0.887-0.785-1.514-1.488-1.146c-6.944,3.603-15.443,6.631-21.317,11.941
						c-5.124,4.633-6.672,11.38-6.596,18.049C313.796,538.304,314.132,538.607,314.531,538.706z"/>
				</g>
				<g>
					<path style="fill:#87B8C7;" d="M252.287,561.21c10.478,3.227,19.946,9.031,27.324,17.182c5.76,6.361,10.38,12.752,19.949,9.722
						c0.586-0.184,0.766-0.713,0.674-1.182c3.632-11.158-3.426-21.697-13.461-26.469c-5.763-2.742-12.121-3.711-18.445-3.983
						c-5.703-0.25-11.776-0.621-16.491,3.033C251.2,560.01,251.631,561.008,252.287,561.21z"/>
				</g>
				<g>
					<path style="fill:#87B8C7;" d="M228.699,585.193c6.624,4.405,15.231,5.706,22.85,7.309c8.591,1.808,17.201,2.824,25.978,1.792
						c0.77-0.104,1.073-0.854,0.912-1.425c-0.019-0.06-0.041-0.102-0.06-0.161c0.098-0.143,0.18-0.346,0.161-0.593
						c-1.013-10.253-7.312-20.915-17.549-24.328c-2.578-0.852-4.934-0.994-7.147-0.589c-0.041,0-0.082,0-0.124,0.019
						c-4.813,0.875-8.936,4.187-12.979,7.68c-0.019,0.022-0.041,0.022-0.041,0.041c-3.692,3.185-7.331,6.497-11.393,8.245
						c-0.121,0.061-0.241,0.121-0.364,0.162C228.132,583.67,227.926,584.687,228.699,585.193z"/>
				</g>
				<g>
					<path style="fill:#87B8C7;" d="M243.572,604.475c5.849,11.83,25.617,21.295,35.785,9.363c0.434-0.069,0.798-0.374,0.748-0.943
						c-1.577-17.856-24.725-12.153-35.924-9.911C243.496,603.119,243.303,603.93,243.572,604.475z"/>
				</g>
				<g>
					<path style="fill:#87B8C7;" d="M320.079,592.821c0.428,0.761,1.339,0.549,1.716-0.016c0.098-0.016,0.196-0.031,0.298-0.079
						c14.094-7.169,10.915-27.565,11.029-40.525c0.003-0.617-0.662-1.206-1.289-0.978c-6.793,2.479-13.695,9.271-16.666,15.852
						C311.159,575.947,315.731,585.045,320.079,592.821z"/>
				</g>
				<g>
					<path style="fill:#87B8C7;" d="M352.08,576.834c0.003,0.003,0.003,0.003,0.003,0.003c8.375,12.612,23.689,16.394,34.667,26.022
						c0.801,0.703,1.862,0.01,1.697-0.988c-1.691-10.313,0.301-23.694-10.807-29.334c-8.008-4.066-18.882-2.844-25.769,2.783
						C351.263,575.817,351.548,576.521,352.08,576.834z"/>
				</g>
				<g>
					<path style="fill:#87B8C7;" d="M349.645,604.839c2.859,6.758,10.643,10.181,12.055,17.691c0.225,1.19,1.922,0.801,1.992-0.272
						c0.507-7.814,4.965-15.557,3.67-23.489c-1.083-6.656-7.534-10.874-13.034-13.892c-0.513-0.282-0.988-0.076-1.27,0.278
						c-0.421-0.171-0.937-0.113-1.257,0.367C348.533,590.523,347.289,599.278,349.645,604.839z"/>
				</g>
				<g>
					<path style="fill:#87B8C7;" d="M316.976,633.41c5.339,3.06,11.51,0.313,16.295-2.713c2.16-1.365,4.224-3.063,5.475-5.33
						c2.119-3.835,2.068-8.144,4.595-11.947c0.51-0.763-0.333-1.697-1.147-1.491c-11.228,2.844-17.875,10.602-24.338,19.677
						C316.782,631.178,315.893,632.786,316.976,633.41z"/>
				</g>
				<g>
					<path style="fill:#87B8C7;" d="M303.879,622.638c5.924-0.611,11.361-2.207,13.948-8.046c2.391-5.399,0.935-11.185-2.071-15.997
						c-0.345-0.555-1.121-0.682-1.596-0.206c-6.133,6.102-6.33,15.117-10.769,22.21c-0.063,0.102-0.085,0.193-0.111,0.291
						C302.65,621.473,302.837,622.749,303.879,622.638z"/>
				</g>
				<g>
					<path style="fill:#87B8C7;" d="M294.525,550.672c3.223,3.8,7.109,6.97,12.026,8.046c0.364,0.887,1.944,0.754,1.954-0.398
						c0-0.142-0.022-0.275-0.025-0.415c0.016-0.13,0.009-0.25-0.023-0.37c-0.241-4.788-2.878-8.848-6.723-11.707
						c-2.055-1.532-4.354-2.685-6.707-3.685c-1.251-0.535-2.942-1.587-4.205-0.526C287.862,544.092,293.046,548.931,294.525,550.672
						z"/>
				</g>
				<g>
					<path style="fill:#87B8C7;" d="M290.031,623.142c6.865-6.511,9.557-15.922,7.213-25.086c-0.164-0.633-0.937-0.937-1.491-0.605
						c-8.534,5.092-7.995,15.127-6.732,23.79c-0.145,0.149-0.272,0.316-0.427,0.462C287.644,622.606,289.081,624.04,290.031,623.142
						z"/>
				</g>
				<g>
					<path style="fill:#78A8B3;" d="M229.307,583.183c0,0.364,0.165,0.751,0.509,0.893c1.97,0.896,3.655-0.753,5.38-1.729
						c4.632-2.536,9.284-5.177,14.379-6.659c4.268-1.238,7.761-1.785,11.824,1.118c1.906,1.358,3.553,3.41,5.237,5.034
						c3.493,3.395,7.048,6.704,10.38,10.26c0.162,0.181,0.345,0.244,0.548,0.282c0.203,0.304,0.529,0.469,0.874,0.487
						c-0.019-0.06-0.041-0.102-0.06-0.161c0.098-0.143,0.18-0.346,0.161-0.593c-1.013-10.253-7.312-20.915-17.549-24.328
						c-2.578-0.852-4.934-0.994-7.147-0.589c-0.041,0-0.082,0-0.124,0.019c-4.67,1.2-8.857,4.408-12.979,7.68
						c-0.019,0.022-0.041,0.022-0.041,0.041c-3.594,2.84-7.128,5.725-10.884,7.394C229.49,582.471,229.307,582.815,229.307,583.183z
						"/>
				</g>
				<path style="fill:#78A8B3;" d="M319.749,616.517c0.966-3.935,2.052-7.926,3.388-11.826c-0.013-0.032-0.038-0.055-0.048-0.089
					c-1.827-6.238-2.52-12.584-2.149-18.901c-0.339-0.058-0.656-0.26-0.789-0.681c-1.171-3.733-1.666-7.543-1.479-11.45
					c0.063-1.302,2.093-1.311,2.03,0c-0.126,2.704,0.092,5.345,0.643,7.951c0.411-3.009,1.042-6.001,1.954-8.968
					c0.38-1.248,2.34-0.713,1.957,0.538c-2.866,9.345-3.147,18.851-0.899,28.255c1.9-4.845,4.287-9.471,7.489-13.568
					c7.524-9.633,21.203-15.484,32.033-10.946c0.025-0.371,0.247-0.713,0.722-0.827c4.199-1.01,8.417-0.38,12.119,1.85
					c1.118,0.675,0.098,2.432-1.026,1.754c-3.014-1.814-6.368-2.425-9.788-1.792c2.508,1.416,4.82,3.448,6.805,6.203
					c0.766,1.064-0.995,2.077-1.754,1.026c-5.19-7.204-14.632-9.468-22.9-6.786c-2.403,0.779-4.614,1.916-6.663,3.29
					c8.658-0.181,15.218,5.62,21.137,11.384c0.938,0.915-0.501,2.35-1.435,1.438c-1.178-1.147-2.375-2.299-3.606-3.397
					c0.336,2.046,0.405,4.106,0.187,6.196c-0.133,1.286-2.166,1.299-2.03,0c0.278-2.669,0.098-5.271-0.583-7.872
					c-0.035-0.139-0.035-0.269-0.019-0.386c-4.186-3.309-8.863-5.713-14.607-5.304c-0.535,0.037-0.836-0.289-0.931-0.681
					c-4.608,3.635-8.233,8.574-10.858,13.796c-5.225,10.38-8.205,22.251-9.889,34.136c4.202-1.086,7.862-3.274,10.804-6.501
					c0.883-0.969,2.315,0.472,1.438,1.435c-1.485,1.624-3.157,3.002-4.975,4.142c1.172-0.004,2.34-0.061,3.506-0.244
					c1.279-0.199,1.827,1.758,0.541,1.96c-1.947,0.305-3.885,0.415-5.852,0.292c-0.424-0.028-0.697-0.27-0.846-0.57
					c-1.498,0.69-3.071,1.241-4.715,1.618c-0.073,0.019-0.133,0.003-0.196,0.007c-0.744,5.757-1.194,11.497-1.46,17.058
					c-0.06,1.302-2.093,1.308-2.03,0C315.51,638.746,317.045,627.518,319.749,616.517z"/>
				<path style="fill:#78A8B3;" d="M286.045,574.769c1.83,1.326,3.572,2.739,5.237,4.221c-0.979-3.601-2.514-6.944-4.689-10.034
					c-0.753-1.074,1.007-2.087,1.754-1.026c2.654,3.771,4.465,7.951,5.399,12.467c0.063,0.304-0.006,0.56-0.139,0.77
					c4.522,4.427,8.382,9.452,11.504,15.044c0.551-7.001,1.014-14.012,1.352-21.025c0.241-4.984,0.627-10.564,0.77-16.308
					c-2.349-3.17-4.835-6.286-8.486-8.002c-1.184-0.555-0.155-2.306,1.023-1.755c3.1,1.457,5.424,3.867,7.514,6.491
					c0.013-2.694-0.035-5.408-0.199-8.1c-0.159-0.275-0.196-0.607-0.054-0.934c-1.02-14.339-5.326-27.888-19.059-34.225
					c-1.184-0.545-0.155-2.296,1.026-1.751c3.477,1.603,6.368,3.651,8.768,6.042c0.114-1.97-0.206-3.904-0.934-5.769
					c-0.475-1.216,1.488-1.745,1.957-0.538c1.029,2.638,1.263,5.376,0.823,8.163c-0.01,0.044-0.035,0.073-0.044,0.111
					c5.846,6.973,8.258,16.285,9.132,25.934c2.945-3.414,5.887-6.83,8.828-10.247c-0.282-0.143-0.494-0.418-0.465-0.849
					c0.184-2.856,1.08-5.522,2.729-7.869c0.747-1.058,2.511-0.047,1.754,1.026c-1.219,1.735-1.985,3.639-2.299,5.699
					c1.092-1.27,2.185-2.536,3.28-3.806c0.852-0.991,2.283,0.449,1.435,1.438c-5.016,5.82-10.032,11.641-15.051,17.467
					c0.219,3.55,0.244,7.115,0.196,10.607c0.044,0.061,0.092,0.121,0.136,0.181c0.342,0.462,0.181,0.905-0.158,1.185
					c-0.066,3.417-0.203,6.757-0.33,9.898c-0.649,16.193-1.887,32.359-3.654,48.461c3.657-2.021,5.665-5.827,7.489-9.472
					c0.583-1.171,2.337-0.146,1.754,1.023c-2.093,4.19-4.487,8.566-8.933,10.599c-0.193,0.089-0.374,0.102-0.548,0.079
					c-1.168,10.346-2.558,20.659-4.167,30.947c-0.199,1.288-2.159,0.741-1.957-0.542c2.641-16.887,4.674-33.862,6.102-50.89
					c-0.184-0.072-0.357-0.199-0.475-0.427c-4.651-8.978-11.162-16.596-19.344-22.53C283.974,575.761,284.987,574,286.045,574.769z"
					/>
				<path style="fill:#78A8B3;" d="M252.442,576.372c4.271-0.079,8.166,0.94,11.7,2.7c-1.504-1.605-3.122-3.097-4.877-4.44
					c-1.022-0.782-0.012-2.546,1.026-1.751c3.407,2.607,6.362,5.627,8.885,9.104c0.098,0.137,0.152,0.272,0.174,0.399
					c6.871,5.399,11.95,13.632,15.111,21.488c1.919,4.771,3.34,9.709,4.449,14.731c1.133-1.902,1.767-4.034,2.473-6.137
					c0.561-1.678,1.07-3.198,2.631-4.177c1.108-0.693,2.131,1.062,1.023,1.754c-1.641,1.029-2.023,4.003-2.616,5.713
					c-0.576,1.663-1.216,3.236-2.238,4.677c-0.209,0.298-0.497,0.418-0.789,0.434c2.461,12.277,3.141,25.035,4.322,37.334
					c0.124,1.299-1.909,1.292-2.033,0c-1.096-11.447-1.805-23.15-3.879-34.54c-0.146-0.048-0.291-0.124-0.424-0.272
					c-3.835-4.237-7.814-8.496-12.656-11.444c-1.46,1.356-3.154,2.378-5.054,3.027c-1.241,0.421-1.773-1.539-0.541-1.957
					c1.381-0.475,2.625-1.181,3.727-2.1c-1.346-0.686-2.736-1.302-4.234-1.751c-1.251-0.374-0.719-2.334,0.539-1.957
					c1.969,0.59,3.796,1.403,5.522,2.365c0.311,0.019,0.589,0.206,0.776,0.466c4.389,2.612,8.11,6.223,11.627,10.028
					c-0.671-3.195-1.44-6.371-2.406-9.493c-1.961-6.33-5.064-13.344-9.386-19.205c-0.038-0.01-0.07,0-0.111-0.013
					c-2.311-0.773-4.664-1.317-7.081-1.647c-1.289-0.171-0.741-2.128,0.539-1.957c1.517,0.206,3.002,0.529,4.474,0.906
					c-5.3-6.118-12.153-10.415-20.674-10.254C251.134,578.427,251.134,576.398,252.442,576.372z"/>
			</g>
			<g>
				<polygon style="fill:#FF586A;" points="269.379,639.655 270.994,649.722 273.898,667.745 280.209,707.045 326.412,707.045 
					332.723,667.745 335.624,649.722 337.238,639.655 				"/>
				<polygon style="fill:#CF4755;" points="317.948,649.722 319.563,639.655 337.238,639.655 335.624,649.722 332.723,667.745 
					326.412,707.045 308.736,707.045 315.047,667.745 				"/>
			</g>
		</g>
		<g>
			<g>
				<polygon style="fill:#87B8C7;" points="326.102,590.922 326.102,623.242 327.811,623.242 327.811,626.621 326.102,626.621 
					326.102,706.994 413.333,706.994 413.333,590.922 				"/>
			</g>
			<g>
				<rect x="332.394" y="590.922" width="6.732" height="116.072"/>
			</g>
			<g>
				<polygon style="fill:#78A8B3;" points="432.839,649.86 432.839,590.922 345.607,590.922 345.607,706.994 432.839,706.994 
					432.839,655.326 				"/>
			</g>
			<g>
				<rect x="345.607" y="623.242" style="fill:#FF586A;" width="87.231" height="3.379"/>
			</g>
			<g>
				<rect x="327.805" y="623.242" style="fill:#FF586A;" width="17.802" height="3.379"/>
			</g>
		</g>
		<g>
			<g>
				<path style="fill:#FF586A;" d="M850.03,490.527c-8.702-25.529-18.401-54.101-37.803-75.072
					c-4.259-4.592-8.961-8.814-14.256-12.563c-1.741-1.247-3.479-2.397-5.294-3.48c-28.841-17.422-62.792-14.215-88.305,8.277
					c-17.179,15.161-43.765,93.508-65.497,103.608c-83.46,9.181-134.407,76.758-108.153,142.577
					c0.627,1.555,1.295,3.071,1.998,4.557c29.512,62.038,126.775,49.005,170.208,48.869c38.135-0.104,78.9-1.555,110.448-23.502
					c26.622-18.477,43.17-47.146,49.614-76.731C871.506,568.063,862.804,527.879,850.03,490.527z"/>
			</g>
			<g>
				<path style="fill:#CF4755;" d="M850.03,490.527c-8.702-25.529-18.401-54.101-37.803-75.072
					c30.545,56.263,53.439,149.197,8.996,233.221c-18.657,35.282-60.313,45.716-148.558,45.716
					c-42.144,0-124.653-20.266-139.945-35.959c29.512,62.038,126.775,49.005,170.208,48.869c38.135-0.104,78.9-1.555,110.448-23.502
					c26.622-18.477,43.17-47.146,49.614-76.731C871.506,568.063,862.804,527.879,850.03,490.527z"/>
			</g>
			<g>
				<path style="opacity:0.08;" d="M780.113,508.332c0.098-0.047,0.196-0.092,0.294-0.139
					C780.31,508.237,780.215,508.281,780.113,508.332z"/>
				<path style="opacity:0.08;" d="M780.407,508.193c1.662-0.776,2.625-1.191,2.625-1.191
					C782.149,507.379,781.275,507.781,780.407,508.193z"/>
				<path style="fill:#CF4755;" d="M624.49,550.611c33.3-11.972,80.633-1.073,94.664,2.639
					c18.683-23.851,51.133-40.305,60.959-44.918c-29.012,13.949-49.471,46.051-49.471,46.051l-7.967,14.016
					c-40.244-0.329-92.488,18.717-92.488,18.717c14.639-11.186,51.773-21.475,76.557-27.425
					C679.281,547.965,624.49,550.611,624.49,550.611z"/>
			</g>
		</g>
		<g>
			<path d="M691.26,490.327c-44.688-0.77-129.717,0.833-135.011,1.894c-12.853,2.571-29.803,23.287-5.019,35.139
				c20.703,9.905,148.21,57.783,166.12-0.36C723.92,505.663,704.851,490.561,691.26,490.327z"/>
			<path d="M564.722,510.593c-1.637,1.913-20.066,13.623-13.493,16.767c20.703,9.905,148.21,57.783,166.12-0.36
				c2.84-9.221,0.886-17.271-3.341-23.467C708.242,505.309,573.702,500.103,564.722,510.593z"/>
			<path d="M682.355,563.057c-27.216-1.776-72.013-10.649-104.891-7.771c-32.878,2.879-27.324-28.895-5.491-34.619
				c22.758-5.972,68.185-18.325,98.783-20.95c30.595-2.628,42.926,0.121,57.761,7.486
				C743.352,514.567,748.552,567.379,682.355,563.057z"/>
			<path d="M724.372,339.629c2.724,8.145-1.671,16.952-9.815,19.677c-8.142,2.723-16.951-1.67-19.674-9.814
				c-2.727-8.144,1.668-16.954,9.813-19.678C712.84,327.092,721.649,331.486,724.372,339.629z"/>
			<path d="M697.245,342.32c8.796-0.431,19.784-2.866,34.604,10.997c14.823,13.865,8.486,27.1,16.308,41.399
				c7.821,14.301,21.08,29.541,17.27,60.364c-3.186,25.75-12.112,44.062-54.3,41.453c-42.185-2.609-40.921-51.19-33.974-66.792
				c6.95-15.602,14.607-20.51,0.181-34.766C661.742,379.562,672.827,343.516,697.245,342.32z"/>
			<path style="fill:#FED8C5;" d="M692.185,430.382c-6.206,14.499-39.401,46.833-49.015,52.672
				c-10.025,6.093-21.875,0.988-18.559-8.502c2.82-8.081,44.635-56.491,48.175-60.437
				C680.415,405.616,698.863,414.774,692.185,430.382z"/>
			<path style="fill:#78A8B3;" d="M673.927,457.496c13.556-16.934,20.24-24.601,21.349-28.536
				c4.398-15.607-17.594-26.244-29.082-11.564c-4.56,5.83-6.244,9.275-15.94,23.362
				C660.722,452.465,669.977,457.192,673.927,457.496z"/>
			<path style="fill:#FED8C5;" d="M719.518,386.775c0,0-7.045,27.011,4.285,27.669c6.27,0.361,15.021,1.685,17.52,6.83
				c1.977,4.066-1.174,10.782-4.018,19.459c-7.293,22.241-10.003,28.147-11.14,34.661c-3.404,19.518,6.785,34.65,6.785,34.65
				s-35.62-1.168-68.023-17.691c0,0,10.655-2.45,10.576-13.992c-0.031-4.959-2.729-12.128-5.852-16.162c0,0-9.373-0.2-9.886-10.158
				c-0.51-9.959,7.847-15.867,9.338-21.175c1.491-5.304,1.625-15.462,7.768-19.759c4.484-3.132,21.976,6.333,22.162-11.951
				C699.224,380.879,718.112,380.98,719.518,386.775z"/>
			<path style="fill:#87B8C7;" d="M735.284,513.674c0,0-60.541,0-73.758-23.916c0,0,16.614-14.794,8.122-27.556
				c0,0-9.37-0.203-9.876-10.161c-0.517-9.962,7.843-15.871,9.331-21.178c1.488-5.295,1.621-15.459,7.772-19.756
				c1.279-0.899,3.619-0.767,6.316-0.545c-0.573,9.313,2.667,17.378,9.332,20.89c10.348,5.475,25.107-2.068,33.252-16.875
				c6,0.532,13.296,2.065,15.547,6.697c1.979,4.066-14.024,47.609-15.16,54.12C722.758,494.919,735.284,513.674,735.284,513.674z"/>
			<path style="fill:#78A8B3;" d="M732.947,510.045c0,0-30.009-3.4-30.009-21.37c0-4.016,1.586-16.216,1.586-16.216
				c5.066-0.856,9.551-4.263,11.241-9.51c2.306-7.134-1.732-15.791-9.157-17.906l-6.491-1.85
				c11.943-3.441,11.772-7.938,24.015-25.785c0.576-0.839,1.447-1.862,1.644-2.831c5.874,0.573,13.375,2.224,15.547,6.697
				c1.979,4.066-1.174,10.785-4.021,19.459c-7.296,22.248-10.004,28.15-11.14,34.661
				C722.758,494.919,732.947,510.045,732.947,510.045z"/>
			<path style="fill:#FED8C5;" d="M719.348,438.364c5.278,10.83,21.421,53.869,25.832,61.837c5.387,9.733,18.442,5.965,19.363-4.044
				c0.785-8.524-17.65-70.456-21.899-75.684C734.968,411.037,716.031,431.56,719.348,438.364z"/>
			<path style="fill:#EEAC96;" d="M747.244,496.249c-1.447-3.126-2.552-6.387-3.859-9.569c-2.591-6.295-6.062-12.173-8.863-18.369
				c-5.459-12.064-11.631-30.035-4.744-42.479c1.869-3.379,4.418-6.017,7.379-7.776c-8.692,0.431-20.482,14.822-17.809,20.31
				c5.278,10.83,19.797,49.164,24.208,57.131c1.551,2.806,3.815,4.733,6.272,5.823C748.926,499.649,748.042,497.965,747.244,496.249
				z"/>
			<path style="fill:#FED8C5;" d="M678.746,364.271c0,0-2.189,8.321,1.82,16.402c0,0-7.213,11.441,6.85,21.13
				c14.06,9.692,29.056-3.99,31.456-17.321c0,0,10.713,0.342,9.37-9.155c-1.346-9.495-7.464-8.233-13.347-5.481
				c0,0-14.181-19.859-21.698-18.392C685.681,352.923,680.031,355.205,678.746,364.271z"/>
			<path style="fill:#EEAC96;" d="M728.242,375.328c-1.346-9.495-7.464-8.234-13.347-5.481c0,0-14.181-19.859-21.698-18.392
				c-6.016,1.175-10.825,2.88-13.172,8.157c4.54-2.658,27.479,11.836,30.927,23.423c3.512,11.783-6.979,22.688-18.619,20.491
				c-1.393-0.263-2.764-0.671-4.094-1.197c13.818,8.616,28.28-4.778,30.633-17.846C718.872,384.483,729.585,384.825,728.242,375.328
				z"/>
			<path style="fill:#FED8C5;" d="M759.584,489.26c-14.239-7.634-49.479-13.397-57.526-18.977
				c-4.975-3.445-20.984,6.991-10.167,9.483c10.842,2.495,38.587,20.854,53.831,26.561
				C760.829,511.98,769.221,494.428,759.584,489.26z"/>
			<g>
				<g>
					<g>
						<g>
							<path style="fill:#FED8C5;" d="M686.032,453.491c1.64-0.377,3.806-0.798,5.5-0.38c1.2,0.297,2.046,1.127,2.746,2.289
								c1.412,2.347,7.438,8.293,6.466,13.604c0.044,7.179-4.854,5.915-6.276,3.648c-0.482-0.767-3.347-11.701-3.79-12.489
								c-1.552-2.742-2.632-1.796-4.497-2.441c-0.861-0.301-1.814-1.105-1.919-2.235
								C684.135,454.144,685.079,453.71,686.032,453.491z"/>
						</g>
					</g>
					<g>
						<path style="fill:#D8EEF0;" d="M693.721,497.544c-8.145,1.573-13.857-27.334-16.809-33.166
							c-2.916-5.836-10.956,2.441-17.574,3.122c-10.934,1.127-18.299-2.334-11.418-12.131c0.092-0.146,0.219-0.267,0.314-0.38
							c7.169-9.405,27.415-11.647,37.479-2.318C695.12,461.395,700.877,496.16,693.721,497.544z"/>
					</g>
					<g>
						<path d="M694.914,496.828c-0.234-0.219-8.318,8.73-18.591-28.683c-1.409-5.126-10.813-0.472-16.681,0.39
							c-11.169,1.634-18.604-3.369-11.723-13.166c0.092-0.146,0.219-0.267,0.314-0.38c-0.52,2.438-1.337,6.456,1.415,7.792
							c5.915,2.879,15.576-3.036,19.617-3.312c4.078-0.244,9.777-2.537,13.107,10.905
							C686.906,488.681,688.524,491.838,694.914,496.828z"/>
					</g>
				</g>
				<g>
					<g>
						<path style="fill:#CF4755;" d="M651.498,453.399l0.516,1.353c0.285,0.743,2.277,0.68,4.449-0.15
							c2.173-0.826,3.698-2.103,3.417-2.85l-0.517-1.35L651.498,453.399z"/>
					</g>
					<g>
						<path style="fill:#FF586A;" d="M659.363,450.403c0.285,0.747-1.244,2.021-3.416,2.85c-2.173,0.83-4.161,0.894-4.449,0.147
							c-0.282-0.747,1.244-2.023,3.416-2.847C657.09,449.727,659.078,449.659,659.363,450.403z"/>
					</g>
				</g>
				<g>
					<g>
						<path style="fill:#CF4755;" d="M653.486,459.128l0.576,1.51c0.32,0.836,2.559,0.757,5.004-0.174
							c2.444-0.935,4.17-2.365,3.85-3.201l-0.576-1.511L653.486,459.128z"/>
					</g>
					<g>
						<path style="fill:#FF586A;" d="M662.34,455.752c0.32,0.836-1.406,2.267-3.851,3.201c-2.444,0.932-4.683,1.007-5.003,0.175
							c-0.316-0.836,1.409-2.267,3.851-3.199C659.781,454.995,662.021,454.916,662.34,455.752z"/>
					</g>
				</g>
			</g>
			<path style="fill:#FED8C5;" d="M644.76,468.295c-11.467-11.384-54.62-28.395-58.999-37.15
				c-4.379-8.759-1.169-16.142-11.415-17.067c-10.247-0.925-13.205,1.498-16.545,7.416c-3.341,5.918,4.997,11.916,15.24,16.194
				c10.241,4.274,41.893,38.726,53.378,45.632C640.244,491.632,652.515,475.999,644.76,468.295z"/>
			<path d="M697.159,353.348c0,0-3.93-1.104-10.722,7.331c-6.792,8.434-19.646,11.515-19.646,11.515
				S674.012,344.326,697.159,353.348z"/>
			<path d="M692.283,350.36c-2.423,3.449-0.902,11.387,9.619,17.812c10.523,6.425,10.928,17.806,15.707,10.187
				c4.781-7.616,4.584-8.598,2.929-16.68C718.879,353.596,697.6,342.788,692.283,350.36z"/>
			<g>
				<path style="fill:#FED8C5;" d="M509.612,691.716c20.861-7.498,16.779-24.892,19.911-37.001l18.426,6.837
					c0,0-6.88,18.482-5.994,32.542c0.887,14.063-3.116,12.752-3.116,12.752l-47.818,0.148
					C491.021,706.994,495.685,696.719,509.612,691.716z"/>
				<path d="M509.612,691.716c4.237-1.412,7.802-4.462,10.807-8.351c1.951-2.745,11.479,0.247,13.078,5.548
					c0,0,3.87,2.765,8.429,2.325c-0.006,0.975,0.035,1.785,0.199,2.691c2.477,13.479-3.287,12.916-3.287,12.916l-47.818,0.148
					C491.021,706.994,495.571,696.39,509.612,691.716z"/>
			</g>
			<path d="M588.794,549.624c-0.573,16.155-41.988,122.764-41.988,122.764s-12.916,2.102-21.513-6.635
				c0,0,23.242-122.849,25.715-131.474C552.98,527.407,589.741,523.034,588.794,549.624z"/>
			<g>
				<path style="fill:#FED8C5;" d="M507.535,636.726l-13.87-7.811c-6.834,16.76-16.659,28.483-32.318,8.309
					c-7.216-9.293-20.168-2.939-20.168-2.939l37.444,48.236c0,0,5.678,3.287,11.564-12.42
					C496.581,653.04,507.535,636.726,507.535,636.726z"/>
				<path d="M475.664,657.289c0.459-5.215,8.419-6.004,5.338-10.472c-5.304,2.647-11.732,0.611-19.655-9.595
					c-7.216-9.293-20.168-2.939-20.168-2.939l37.444,48.236c0,0,5.329,3.084,11.013-11.007
					C485.714,666.456,474.973,665.165,475.664,657.289z"/>
			</g>
			<path d="M546.423,585.14c-15.311,21.761-39.61,64.18-39.61,64.18s-9.883,1.611-20.725-8.439c0,0,45.966-131.082,57.828-141.142
				C554.985,490.353,614.648,488.174,546.423,585.14z"/>
			<path style="fill:#87B8C7;" d="M756.731,456.563c-6.004-20.846-8.407-30.725-10.981-33.904
				c-10.206-12.603-31.586-0.782-26.229,17.074c2.128,7.09,3.971,10.453,9.88,26.501
				C745.003,464.444,754.204,459.612,756.731,456.563z"/>
			<path style="fill:#78A8B3;" d="M735.154,416.893c0,0-10.744,5.051-7.926,21.839c2.821,16.789,10.475,26.149,10.475,26.149
				l-8.391,1.353l-8.633-22.638C720.68,443.596,710.439,421.246,735.154,416.893z"/>
			<g>
				<g>
					<g>
						<path style="fill:#EAF4F5;" d="M706.861,383.862c6.077-5.763,12.515-3.623,12.515-3.623l2.093-8.258l-14.325-5.957
							L706.861,383.862z"/>
					</g>
					<g>
						<g>
							<path style="fill:#D8EEF0;" d="M702.59,364.374l-33.879,3.311c-5.586,0.546-9.674,5.52-9.126,11.105
								c0.545,5.586,5.517,9.671,11.105,9.126l33.875-3.312c3.113-0.304,5.39-3.072,5.086-6.184l-0.877-8.961
								C708.47,366.345,705.703,364.068,702.59,364.374z"/>
						</g>
					</g>
					<g>
						<g>
							<path style="fill:#78A8B3;" d="M690.921,365.514l-23.707,2.318c-4.76,0.465-8.239,4.701-7.774,9.457l0.292,3.002
								c0.465,4.756,4.698,8.239,9.458,7.77l23.711-2.318c4.756-0.462,8.239-4.699,7.773-9.458l-0.294-2.999
								C699.914,368.53,695.681,365.048,690.921,365.514z"/>
						</g>
					</g>
					<g>
						<path style="fill:#FF586A;" d="M687.765,367.634l-18.348,1.795c-0.741,0.07-1.282,0.728-1.209,1.469
							c0.072,0.741,0.731,1.286,1.472,1.21l18.348-1.793c0.74-0.069,1.282-0.731,1.209-1.472
							C689.164,368.102,688.505,367.56,687.765,367.634z"/>
					</g>
				</g>
				<g>
					<g>
						<g>
							<path style="fill:#78A8B3;" d="M724.451,368.075l-0.208-1.825c0,0-2.892-1.506-5.162-1.34
								c-3.999,0.294-6.843,5.982-6.349,12.701c0.494,6.719,4.139,11.926,8.141,11.634c0.368-0.028,5.729-2.21,5.729-2.21
								l-0.339-2.98c0.789-2.118,1.166-4.721,0.96-7.511C726.976,373.172,725.934,370.183,724.451,368.075z"/>
						</g>
					</g>
					<g>
						<path style="fill:#EAF4F5;" d="M724.243,366.25c-4,0.294-6.9,5.215-6.476,10.988c0.424,5.775,4.015,10.221,8.014,9.923
							c4.003-0.291,6.903-5.211,6.478-10.987C731.836,370.398,728.245,365.956,724.243,366.25z"/>
					</g>
					<g>
						<g>
							<path d="M725.651,371.069c-1.7,0.124-2.929,2.21-2.748,4.661c0.181,2.451,1.703,4.338,3.4,4.211
								c1.697-0.124,2.93-2.21,2.749-4.661C728.872,372.83,727.349,370.943,725.651,371.069z"/>
						</g>
					</g>
					<g>
						<g>
							<path style="fill:#FF586A;" d="M727.865,370.617l-4.86,0.357c-0.697,0.051-1.223,0.659-1.169,1.355
								c0.051,0.703,0.659,1.225,1.356,1.175l4.857-0.358c0.7-0.051,1.223-0.659,1.172-1.358
								C729.17,371.088,728.561,370.566,727.865,370.617z"/>
						</g>
					</g>
				</g>
			</g>
			<path style="fill:#FED8C5;" d="M690.678,460.163l-12.489,5.994c-2.197,1.055-3.372,3.486-2.837,5.861l1.185,5.247
				c0.949,4.195,4.978,6.95,9.231,6.305l11.852-1.789l-0.69-13.417L690.678,460.163z"/>
			<g>
				<g>
					<g>
						<path style="fill:#D8EEF0;" d="M554.247,452.481c-6.469-4.658,9.981-27.701,12.115-33.61
							c2.16-5.883-8.926-6.055-13.762-10.234c-7.996-6.899-10.427-14.331,0.956-15.975c0.165-0.035,0.33-0.023,0.472-0.035
							c11.301-1.181,26.212,11.501,26.32,24.683C580.447,429.641,559.931,456.572,554.247,452.481z"/>
					</g>
					<g>
						<path d="M555.533,452.845c0-0.31-11.586-0.066,7.806-31.902c2.66-4.363-6.795-7.872-11.263-11.409
							c-8.502-6.732-9.902-15.228,1.481-16.871c0.165-0.035,0.33-0.023,0.472-0.035c-2.045,1.244-5.396,3.325-4.516,6.127
							c1.884,6.032,12.388,8.892,15.244,11.536c2.857,2.691,8.217,5.165,1.01,16.352
							C555.951,441.876,554.814,445.09,555.533,452.845z"/>
					</g>
				</g>
				<g>
					<g>
						<path style="fill:#CF4755;" d="M557.29,393.865l-0.602,1.251c-0.335,0.689,1.023,2.039,3.034,3.015
							c2.011,0.972,3.908,1.2,4.247,0.51l0.604-1.251L557.29,393.865z"/>
					</g>
					<g>
						<path style="fill:#FF586A;" d="M564.573,397.39c-0.339,0.691-2.235,0.462-4.246-0.51c-2.014-0.973-3.37-2.321-3.037-3.015
							c0.336-0.688,2.236-0.463,4.247,0.513C563.547,395.353,564.902,396.699,564.573,397.39z"/>
					</g>
				</g>
				<g>
					<g>
						<path style="fill:#CF4755;" d="M554.596,399.029l-0.675,1.4c-0.374,0.772,1.156,2.286,3.42,3.382
							c2.261,1.096,4.398,1.361,4.775,0.582l0.674-1.396L554.596,399.029z"/>
					</g>
					<g>
						<path style="fill:#FF586A;" d="M562.79,402.997c-0.373,0.776-2.511,0.51-4.775-0.585c-2.264-1.096-3.79-2.609-3.42-3.383
							c0.376-0.772,2.514-0.509,4.775,0.583C561.635,400.708,563.164,402.222,562.79,402.997z"/>
					</g>
				</g>
			</g>
			<g>
				<g>
					<path style="fill:#FED8C5;" d="M576.042,408.656c1.593,0.291,3.661,0.741,4.997,1.754c0.947,0.722,1.378,1.776,1.552,3.065
						c0.355,2.612,3.407,10.148,0.529,14.465c-2.695,6.352-6.533,3.372-6.929,0.829c-0.133-0.857,1.501-11.596,1.409-12.457
						c-0.323-3.015-1.637-2.59-3.034-3.869c-0.646-0.592-1.184-1.662-0.849-2.701C574.12,408.511,575.118,408.485,576.042,408.656z"
						/>
				</g>
			</g>
			<g>
				<g>
					<path style="fill:#FED8C5;" d="M557.043,428.326c0.085-0.151,0.256-0.237,0.446-0.272c-0.665-0.517-1.314-1.159-1.358-1.932
						c-0.054-1.001,0.865-1.594,1.555-2.053c0.035-0.022,0.07-0.025,0.104-0.041c-1.586-0.949-2.926-2.273-2.634-3.91
						c0.278-1.546,1.649-1.919,3.23-1.837c-0.551-0.387-1.058-0.817-1.476-1.279c-1.659-1.817,0.016-3.838,1.913-4.218
						c1.257-0.247,4.145,0.811,5.719,1.577c1.083,0.528,2.727,1.203,3.449,2.279c1.288,1.913-1.093,2.866-2.749,3.256
						c1.688,0.481,3.157,1.38,2.397,3.41c-0.522,1.387-1.571,2.103-2.793,2.388c0.776,0.39,1.46,0.874,1.944,1.522
						c1.229,1.653-0.751,2.917-2.122,3.259c-0.649,0.161-1.308,0.184-1.954,0.114c0.085,0.117,0.152,0.247,0.19,0.396
						c0.317,1.232-1.282,2.071-2.21,2.258C557.927,433.802,555.59,430.907,557.043,428.326z"/>
				</g>
			</g>
		</g>
		<g style="opacity:0.8;">
			<g style="opacity:0.5;">
				<path style="fill:#78A8B3;" d="M311.992,259.075v187.754c1.444-14.326,14.161-50.24,102.795-66.051V186.994
					C302.745,206.975,311.992,259.075,311.992,259.075z"/>
			</g>
			<g>
				<g>
					<g>
						<path style="fill:#78A8B3;" d="M312.561,446.886l-1.143-0.057V259.125c-0.171-1.045-1.96-13.732,9.497-28.942
							c10.731-14.245,35.712-33.399,93.771-43.753l0.674-0.12v194.947l-0.472,0.085
							C326.925,397.035,314.024,432.405,312.561,446.886z M414.213,187.679c-57.213,10.315-81.817,29.167-92.38,43.193
							c-11.412,15.148-9.3,27.975-9.278,28.103l0.009,0.1v181.55c4.551-16.899,23.945-46.364,101.649-60.329V187.679z"/>
					</g>
				</g>
			</g>
			<g style="opacity:0.5;">
				<path d="M311.992,452.857v-6.028C311.58,450.588,311.992,452.857,311.992,452.857z"/>
			</g>
			<g style="opacity:0.5;">
				<path style="fill:#78A8B3;" d="M312.004,259.091c0,0,29.975,65.661,281.917,67.089v204.121c0,0-240.521-5.709-281.917-74.94
					V259.091z"/>
			</g>
			<g>
				<g>
					<g>
						<path style="fill:#78A8B3;" d="M594.494,530.888l-0.586-0.013c-0.602-0.013-60.915-1.542-125.509-11.514
							c-86.842-13.407-139.628-34.842-156.886-63.704l-0.082-0.137V256.476l1.096,2.377c0.073,0.163,7.957,16.506,46.428,32.824
							c35.531,15.073,105.138,33.195,234.969,33.931l0.57,0.003V530.888z M312.577,455.204
							c40.003,66.387,267.503,74.119,280.771,74.509V326.75c-129.872-0.789-199.52-18.983-235.087-34.123
							c-31.536-13.423-42.52-26.605-45.684-31.412V455.204z"/>
					</g>
				</g>
			</g>
			<g>
				<path style="fill:#FF586A;" d="M428.909,410.81c0,22.622-15.728,34.603-35.126,26.767c-19.401-7.837-35.13-32.529-35.13-55.152
					c0-22.619,15.729-34.602,35.13-26.765C413.181,363.498,428.909,388.19,428.909,410.81z"/>
				<path style="fill:#EAF4F5;" d="M406.436,400.379l-19.673-19.307c-1.824-1.789-4.905-0.497-4.905,2.061v22.714
					c0,1.789,1.615,3.15,3.379,2.84l19.67-3.407C407.225,404.878,408.115,402.025,406.436,400.379z"/>
			</g>
			<g>
				<path style="fill:#EAF4F5;" d="M561.169,508.52c-0.032,0-0.066,0-0.098,0c-185.208-5.361-240.698-59.348-242.968-61.643
					c-1.26-1.273-1.247-3.324,0.025-4.585c1.27-1.254,3.321-1.244,4.579,0.019c0.563,0.564,56.478,54.459,238.554,59.725
					c1.789,0.054,3.198,1.545,3.148,3.337C564.358,507.129,562.914,508.52,561.169,508.52z"/>
			</g>
			<g>
				<path d="M396.902,485.093c-0.31,0-0.626-0.044-0.94-0.139c-56.728-17.189-77.023-37.232-77.859-38.078
					c-1.26-1.273-1.247-3.324,0.025-4.585c1.27-1.254,3.321-1.244,4.579,0.019l0,0c0.196,0.197,20.225,19.801,75.136,36.438
					c1.713,0.52,2.682,2.331,2.162,4.044C399.581,484.19,398.295,485.093,396.902,485.093z"/>
			</g>
			<path d="M402.022,485.122c0,3.685-2.562,5.636-5.722,4.359c-3.16-1.275-5.722-5.301-5.722-8.983c0-3.685,2.562-5.64,5.722-4.359
				C399.461,477.414,402.022,481.435,402.022,485.122z"/>
			<path style="fill:#EAF4F5;" d="M488.139,428.371l-15.509-15.219c-1.438-1.412-3.867-0.393-3.867,1.622v5.161L457.5,408.881
				c-1.438-1.409-3.866-0.393-3.866,1.625v17.906c0,1.409,1.27,2.479,2.66,2.238l12.47-2.159v4.189c0,1.412,1.273,2.482,2.663,2.242
				l15.51-2.689C488.76,431.918,489.46,429.669,488.139,428.371z"/>
			<g>
				<path style="fill:#EAF4F5;" d="M344.125,365.973c-4.196,1.582-6.558,2.589-10.887,3.488c0.136-1.404,0.203-2.107,0.339-3.51
					c0.121-1.241-0.969-2.184-2.232-2.076c-5.633,0.481-8.54-0.649-13.825-1.933c-1.552-0.378-2.293,1.376-1.33,3.018
					c4.519,7.706,7.267,11.905,12.276,18.181c1.162,1.453,3.461,0.494,3.623-1.314c0.143-1.58,0.212-2.372,0.352-3.948
					c3.477,3.344,5.491,4.651,8.923,7.669c1.181,1.042,3.23-0.326,3.395-2.122c0.596-6.377,0.893-9.569,1.488-15.949
					C346.364,366.22,345.379,365.501,344.125,365.973z"/>
			</g>
		</g>
		<g>
			<g style="opacity:0.5;">
				<path style="fill:#FF586A;" d="M665.098,93.378c0,0,210.939,8.201,202.104,79.96v147.616c0,0-3.315-65.607-202.104-75.857
					V93.378z"/>
			</g>
			<g>
				<g>
					<g>
						<path style="fill:#CF4755;" d="M866.695,320.983c-0.009-0.164-1.162-16.452-26.438-33.798
							c-23.393-16.054-72.776-36.3-175.185-41.581l-0.48-0.024V92.85l0.525,0.021c1.542,0.06,154.441,6.52,193.599,52.566
							c7.207,8.475,10.232,17.883,8.99,27.963l0.003,147.556L866.695,320.983z M665.604,244.614
							c102.476,5.34,151.934,25.692,175.379,41.837c17.723,12.204,23.698,23.713,25.712,29.864V173.338
							c1.207-9.85-1.738-18.995-8.752-27.244c-37.717-44.352-182.386-51.731-192.339-52.186V244.614z"/>
					</g>
				</g>
			</g>
			<g style="opacity:0.5;">
				<path style="fill:#FF586A;" d="M867.472,165.137c0,0-7.448,29.728-44.997,38.442v155.306c0,0,29.804-7.689,44.997-37.93V165.137
					z"/>
			</g>
			<g>
				<g>
					<g>
						<path style="fill:#CF4755;" d="M821.968,359.54V203.175l0.393-0.092c36.82-8.543,44.543-37.775,44.616-38.07l1.001-3.996
							l-0.055,160.166c-15.116,30.098-45.021,38.116-45.322,38.193L821.968,359.54z M822.981,203.981v154.227
							c4.383-1.331,30.282-10.214,43.983-37.373V168.189C863.928,175.935,853.108,196.831,822.981,203.981z"/>
					</g>
				</g>
			</g>
			<g>
				<g style="opacity:0.5;">
					<path d="M816.157,246.821c-44.461-20.443-84.138-32.115-133.573-31.697c0.085-35.022,0.127-50.268,0.212-85.308
						c49.265-1.987,89.375,8.963,133.549,29.505C816.269,194.324,816.233,211.824,816.157,246.821z"/>
					<path style="fill:#FFFFFF;" d="M810.078,236.206c-37.628-19.723-78.597-28.112-120.854-28.251
						c0.073-28.845,0.117-42.036,0.193-70.893c41.504-1.167,84.277,5.91,120.886,26.358
						C810.214,192.535,810.17,207.093,810.078,236.206z"/>
					<path style="fill:#C3E4E8;" d="M799.473,221.093c-33.093-12.416-63.628-22.88-99.559-22.565
						c0.073-20.831,0.114-30.824,0.19-51.663c36.31-0.621,66.072,8.702,99.6,21.186
						C799.612,189.268,799.565,199.876,799.473,221.093z"/>
					<path d="M699.914,198.528c6.251-9.392,9.389-14.007,15.675-23.181c0.604-0.882,1.899-0.765,2.457,0.225
						c3.41,6.024,5.114,9.071,8.546,15.228c2.78-2.824,4.158-4.21,6.941-6.938c0.693-0.678,1.894-0.344,2.369,0.659
						c3.502,7.335,5.243,11.051,8.724,18.608C726.726,199.6,717.723,199.223,699.914,198.528z"/>
					<path style="fill:#FFFFFF;" d="M730.322,160.958c-0.013,2.874-2.238,4.932-4.937,4.666c-2.701-0.266-4.88-2.758-4.867-5.628
						c0.013-2.872,2.207-5.042,4.902-4.778C728.118,155.482,730.332,158.083,730.322,160.958z"/>
					<path style="fill:#FFFFFF;" d="M763.112,166.188c-1.036-0.583-1.457-1.79-2.416-2.509c-0.852-0.638-1.796-0.901-2.69-0.784
						c-0.477,0.063-0.715,0.193-1.181,0.404c-0.953,0.432-0.757,0.518-1.827,0.439c-0.855-0.062-1.422-0.04-2.232,0.059
						c-1.52,0.185-5.921-1.112-6.693,0.785c-0.685,1.68,1.709,1.785,2.523,2.018c1.387,0.398,2.508,1.525,3.892,1.855
						c1.26,0.301,2.477,0.022,3.613-0.264c1.14,0.258,2.279,0.544,3.419,0.795c1.869,0.417,4.013,1.161,5.833,1.273
						c0.514,0.032,1.049,0.103,1.296-0.401C767.656,167.805,763.974,166.671,763.112,166.188z"/>
					<path style="fill:#FFFFFF;" d="M779.958,175.211c-0.434-0.334-0.887-0.472-1.336-0.554c-0.39-0.072-0.855,0.077-1.245-0.033
						c-0.503-0.143-0.941-0.583-1.409-0.819c-1.206-0.611-2.286-0.603-3.347-0.442c-0.592-0.35-1.197-0.525-1.694-0.152
						c-0.544,0.407-0.589,1.248-0.085,1.998c0.703,1.042,2.22,1.601,3.176,2.012c1.662,0.714,3.632,1.232,5.285,1.251
						C780.832,178.492,782.035,176.821,779.958,175.211z"/>
					<path d="M756.193,205.729c3.938-6.531,5.905-9.759,9.794-16.203c0.335-0.559,1.188-0.333,1.542,0.41
						c2.894,6.067,4.31,9.118,7.201,15.324c1.237-1.705,1.864-2.549,3.131-4.221c0.393-0.513,1.295-0.126,1.6,0.686
						c1.938,5.13,2.92,7.714,4.892,12.907c3.392-6.87,5.124-10.251,8.54-16.946c0.346-0.671,1.473-0.136,1.755,0.833
						c1.95,6.677,2.926,10.023,4.851,16.725c-0.009,2.34-0.016,3.51-0.025,5.849C781.928,212.948,773.279,210.023,756.193,205.729z"
						/>
				</g>
			</g>
		</g>
		<g>
			<g>
				<g>
					<path style="fill:#87B8C7;" d="M594.12,115.913l-0.335-0.13l-28.214-10.854l10.985-28.549l0.335,0.13l28.214,10.853
						L594.12,115.913z M566.502,104.515l27.207,10.467l10.465-27.204l-27.207-10.467L566.502,104.515z"/>
				</g>
			</g>
			<g>
				<polygon style="fill:#87B8C7;" points="580.559,85.791 576.435,76.998 577.087,76.694 581.21,85.487 				"/>
			</g>
			<g>
				<polygon style="fill:#87B8C7;" points="608.436,96.517 604.313,87.723 604.966,87.419 609.089,96.212 				"/>
			</g>
			<g>
				<polygon style="fill:#87B8C7;" points="597.711,124.393 593.588,115.6 594.24,115.295 598.363,124.089 				"/>
			</g>
			<g>
				<polygon style="fill:#87B8C7;" points="569.833,113.668 565.71,104.874 566.362,104.571 570.485,113.364 				"/>
			</g>
			
				<rect x="574.526" y="90.005" transform="matrix(0.3591 -0.9333 0.9333 0.3591 279.8658 617.412)" style="fill:#87B8C7;" width="29.869" height="29.87"/>
		</g>
		<g>
			<g>
				<g>
					<path style="fill:#CF4755;" d="M357.333,73.211l-0.085-0.564l-7.062-47.329l47.891-7.146l0.086,0.563l7.061,47.329
						L357.333,73.211z M351.478,26.278l6.811,45.637l45.642-6.811l-6.811-45.638L351.478,26.278z"/>
				</g>
			</g>
			<g>
				
					<rect x="356.533" y="22.559" transform="matrix(0.5785 -0.8156 0.8156 0.5785 125.8313 304.0164)" style="fill:#CF4755;" width="1.138" height="15.374"/>
			</g>
			<g>
				
					<rect x="403.3" y="15.58" transform="matrix(0.5786 -0.8156 0.8156 0.5786 151.2251 339.2134)" style="fill:#CF4755;" width="1.138" height="15.374"/>
			</g>
			<g>
				
					<rect x="410.279" y="62.345" transform="matrix(0.5786 -0.8156 0.8156 0.5786 115.9951 364.5866)" style="fill:#CF4755;" width="1.138" height="15.375"/>
			</g>
			<g>
				
					<rect x="363.512" y="69.324" transform="matrix(0.5786 -0.8156 0.8156 0.5786 90.6028 329.3907)" style="fill:#CF4755;" width="1.138" height="15.375"/>
			</g>
			
				<rect x="366.602" y="30.944" transform="matrix(0.989 -0.1476 0.1476 0.989 -3.7827 58.1964)" style="fill:#FF586A;" width="47.284" height="47.284"/>
		</g>
		<g>
			<g>
				<g>
					<path style="fill:#CF4755;" d="M509.564,261.768l-0.013-0.432l-1.006-36.399l36.833-1.021l0.013,0.432l1.01,36.401
						l-0.434,0.013L509.564,261.768z M509.438,225.779l0.969,35.099l35.101-0.972l-0.972-35.101L509.438,225.779z"/>
				</g>
			</g>
			<g>
				<polygon style="fill:#CF4755;" points="517.357,233.545 508.7,225.68 509.282,225.037 517.94,232.902 				"/>
			</g>
			<g>
				
					<rect x="548.851" y="222.445" transform="matrix(0.6725 -0.7401 0.7401 0.6725 10.944 481.3166)" style="fill:#CF4755;" width="0.868" height="11.697"/>
			</g>
			<g>
				<polygon style="fill:#CF4755;" points="554.32,268.515 545.663,260.649 546.245,260.006 554.903,267.872 				"/>
			</g>
			<g>
				<polygon style="fill:#CF4755;" points="518.354,269.512 509.694,261.645 510.277,261.002 518.938,268.869 				"/>
			</g>
			
				<rect x="518.14" y="232.718" transform="matrix(0.9996 -0.0277 0.0277 0.9996 -6.7447 14.9603)" style="fill:#FF586A;" width="35.979" height="35.981"/>
		</g>
	</g>
</g>
</svg>
